<svg width="345" height="80" viewBox="0 0 345 80" fill="none" xmlns="http://www.w3.org/2000/svg">
<path d="M102.18 18.04V32H99.38V18.04H102.18ZM116.886 32H114.086L107.746 22.42V32H104.946V18.02H107.746L114.086 27.62V18.02H116.886V32ZM124.473 32.14C123.5 32.14 122.62 31.9733 121.833 31.64C121.06 31.3067 120.447 30.8267 119.993 30.2C119.54 29.5733 119.307 28.8333 119.293 27.98H122.293C122.333 28.5533 122.533 29.0067 122.893 29.34C123.267 29.6733 123.773 29.84 124.413 29.84C125.067 29.84 125.58 29.6867 125.953 29.38C126.327 29.06 126.513 28.6467 126.513 28.14C126.513 27.7267 126.387 27.3867 126.133 27.12C125.88 26.8533 125.56 26.6467 125.173 26.5C124.8 26.34 124.28 26.1667 123.613 25.98C122.707 25.7133 121.967 25.4533 121.393 25.2C120.833 24.9333 120.347 24.54 119.933 24.02C119.533 23.4867 119.333 22.78 119.333 21.9C119.333 21.0733 119.54 20.3533 119.953 19.74C120.367 19.1267 120.947 18.66 121.693 18.34C122.44 18.0067 123.293 17.84 124.253 17.84C125.693 17.84 126.86 18.1933 127.753 18.9C128.66 19.5933 129.16 20.5667 129.253 21.82H126.173C126.147 21.34 125.94 20.9467 125.553 20.64C125.18 20.32 124.68 20.16 124.053 20.16C123.507 20.16 123.067 20.3 122.733 20.58C122.413 20.86 122.253 21.2667 122.253 21.8C122.253 22.1733 122.373 22.4867 122.613 22.74C122.867 22.98 123.173 23.18 123.533 23.34C123.907 23.4867 124.427 23.66 125.093 23.86C126 24.1267 126.74 24.3933 127.313 24.66C127.887 24.9267 128.38 25.3267 128.793 25.86C129.207 26.3933 129.413 27.0933 129.413 27.96C129.413 28.7067 129.22 29.4 128.833 30.04C128.447 30.68 127.88 31.1933 127.133 31.58C126.387 31.9533 125.5 32.14 124.473 32.14ZM141.341 18.04V20.3H137.621V32H134.821V20.3H131.101V18.04H141.341ZM146.184 18.04V32H143.384V18.04H146.184ZM158.45 18.04V20.3H154.73V32H151.93V20.3H148.21V18.04H158.45ZM163.253 18.04V26.68C163.253 27.6267 163.5 28.3533 163.993 28.86C164.487 29.3533 165.18 29.6 166.073 29.6C166.98 29.6 167.68 29.3533 168.173 28.86C168.667 28.3533 168.913 27.6267 168.913 26.68V18.04H171.733V26.66C171.733 27.8467 171.473 28.8533 170.953 29.68C170.447 30.4933 169.76 31.1067 168.893 31.52C168.04 31.9333 167.087 32.14 166.033 32.14C164.993 32.14 164.047 31.9333 163.193 31.52C162.353 31.1067 161.687 30.4933 161.193 29.68C160.7 28.8533 160.453 27.8467 160.453 26.66V18.04H163.253ZM183.939 18.04V20.3H180.219V32H177.419V20.3H173.699V18.04H183.939ZM195.567 32.14C194.594 32.14 193.714 31.9733 192.927 31.64C192.154 31.3067 191.541 30.8267 191.087 30.2C190.634 29.5733 190.401 28.8333 190.387 27.98H193.387C193.427 28.5533 193.627 29.0067 193.987 29.34C194.361 29.6733 194.867 29.84 195.507 29.84C196.161 29.84 196.674 29.6867 197.047 29.38C197.421 29.06 197.607 28.6467 197.607 28.14C197.607 27.7267 197.481 27.3867 197.227 27.12C196.974 26.8533 196.654 26.6467 196.267 26.5C195.894 26.34 195.374 26.1667 194.707 25.98C193.801 25.7133 193.061 25.4533 192.487 25.2C191.927 24.9333 191.441 24.54 191.027 24.02C190.627 23.4867 190.427 22.78 190.427 21.9C190.427 21.0733 190.634 20.3533 191.047 19.74C191.461 19.1267 192.041 18.66 192.787 18.34C193.534 18.0067 194.387 17.84 195.347 17.84C196.787 17.84 197.954 18.1933 198.847 18.9C199.754 19.5933 200.254 20.5667 200.347 21.82H197.267C197.241 21.34 197.034 20.9467 196.647 20.64C196.274 20.32 195.774 20.16 195.147 20.16C194.601 20.16 194.161 20.3 193.827 20.58C193.507 20.86 193.347 21.2667 193.347 21.8C193.347 22.1733 193.467 22.4867 193.707 22.74C193.961 22.98 194.267 23.18 194.627 23.34C195.001 23.4867 195.521 23.66 196.187 23.86C197.094 24.1267 197.834 24.3933 198.407 24.66C198.981 24.9267 199.474 25.3267 199.887 25.86C200.301 26.3933 200.507 27.0933 200.507 27.96C200.507 28.7067 200.314 29.4 199.927 30.04C199.541 30.68 198.974 31.1933 198.227 31.58C197.481 31.9533 196.594 32.14 195.567 32.14ZM205.735 20.3V23.8H210.435V26.02H205.735V29.72H211.035V32H202.935V18.02H211.035V20.3H205.735ZM225.519 32H222.719L216.379 22.42V32H213.579V18.02H216.379L222.719 27.62V18.02H225.519V32ZM231.086 18.04V32H228.286V18.04H231.086ZM241.418 18.04V32H238.618V18.04H241.418ZM256.125 32H253.325L246.985 22.42V32H244.185V18.02H246.985L253.325 27.62V18.02H256.125V32ZM263.772 18.04C265.238 18.04 266.525 18.3267 267.632 18.9C268.752 19.4733 269.612 20.2933 270.212 21.36C270.825 22.4133 271.132 23.64 271.132 25.04C271.132 26.44 270.825 27.6667 270.212 28.72C269.612 29.76 268.752 30.5667 267.632 31.14C266.525 31.7133 265.238 32 263.772 32H258.892V18.04H263.772ZM263.672 29.62C265.138 29.62 266.272 29.22 267.072 28.42C267.872 27.62 268.272 26.4933 268.272 25.04C268.272 23.5867 267.872 22.4533 267.072 21.64C266.272 20.8133 265.138 20.4 263.672 20.4H261.692V29.62H263.672ZM279.708 32.14C278.401 32.14 277.201 31.8333 276.108 31.22C275.014 30.6067 274.148 29.76 273.508 28.68C272.868 27.5867 272.548 26.3533 272.548 24.98C272.548 23.62 272.868 22.4 273.508 21.32C274.148 20.2267 275.014 19.3733 276.108 18.76C277.201 18.1467 278.401 17.84 279.708 17.84C281.028 17.84 282.228 18.1467 283.308 18.76C284.401 19.3733 285.261 20.2267 285.888 21.32C286.528 22.4 286.848 23.62 286.848 24.98C286.848 26.3533 286.528 27.5867 285.888 28.68C285.261 29.76 284.401 30.6067 283.308 31.22C282.214 31.8333 281.014 32.14 279.708 32.14ZM279.708 29.64C280.548 29.64 281.288 29.4533 281.928 29.08C282.568 28.6933 283.068 28.1467 283.428 27.44C283.788 26.7333 283.968 25.9133 283.968 24.98C283.968 24.0467 283.788 23.2333 283.428 22.54C283.068 21.8333 282.568 21.2933 281.928 20.92C281.288 20.5467 280.548 20.36 279.708 20.36C278.868 20.36 278.121 20.5467 277.468 20.92C276.828 21.2933 276.328 21.8333 275.968 22.54C275.608 23.2333 275.428 24.0467 275.428 24.98C275.428 25.9133 275.608 26.7333 275.968 27.44C276.328 28.1467 276.828 28.6933 277.468 29.08C278.121 29.4533 278.868 29.64 279.708 29.64ZM300.871 32H298.071L291.731 22.42V32H288.931V18.02H291.731L298.071 27.62V18.02H300.871V32ZM306.438 20.3V23.8H311.138V26.02H306.438V29.72H311.738V32H303.638V18.02H311.738V20.3H306.438ZM319.102 32.14C318.129 32.14 317.249 31.9733 316.462 31.64C315.689 31.3067 315.076 30.8267 314.622 30.2C314.169 29.5733 313.936 28.8333 313.922 27.98H316.922C316.962 28.5533 317.162 29.0067 317.522 29.34C317.896 29.6733 318.402 29.84 319.042 29.84C319.696 29.84 320.209 29.6867 320.582 29.38C320.956 29.06 321.142 28.6467 321.142 28.14C321.142 27.7267 321.016 27.3867 320.762 27.12C320.509 26.8533 320.189 26.6467 319.802 26.5C319.429 26.34 318.909 26.1667 318.242 25.98C317.336 25.7133 316.596 25.4533 316.022 25.2C315.462 24.9333 314.976 24.54 314.562 24.02C314.162 23.4867 313.962 22.78 313.962 21.9C313.962 21.0733 314.169 20.3533 314.582 19.74C314.996 19.1267 315.576 18.66 316.322 18.34C317.069 18.0067 317.922 17.84 318.882 17.84C320.322 17.84 321.489 18.1933 322.382 18.9C323.289 19.5933 323.789 20.5667 323.882 21.82H320.802C320.776 21.34 320.569 20.9467 320.182 20.64C319.809 20.32 319.309 20.16 318.682 20.16C318.136 20.16 317.696 20.3 317.362 20.58C317.042 20.86 316.882 21.2667 316.882 21.8C316.882 22.1733 317.002 22.4867 317.242 22.74C317.496 22.98 317.802 23.18 318.162 23.34C318.536 23.4867 319.056 23.66 319.722 23.86C320.629 24.1267 321.369 24.3933 321.942 24.66C322.516 24.9267 323.009 25.3267 323.422 25.86C323.836 26.3933 324.042 27.0933 324.042 27.96C324.042 28.7067 323.849 29.4 323.462 30.04C323.076 30.68 322.509 31.1933 321.762 31.58C321.016 31.9533 320.129 32.14 319.102 32.14ZM329.27 18.04V32H326.47V18.04H329.27ZM340.596 29.34H335.036L334.116 32H331.176L336.196 18.02H339.456L344.476 32H341.516L340.596 29.34ZM339.836 27.1L337.816 21.26L335.796 27.1H339.836ZM110.48 48.04L105.76 57.14V62H102.96V57.14L98.22 48.04H101.38L104.38 54.42L107.36 48.04H110.48ZM118.575 62.14C117.268 62.14 116.068 61.8333 114.975 61.22C113.882 60.6067 113.015 59.76 112.375 58.68C111.735 57.5867 111.415 56.3533 111.415 54.98C111.415 53.62 111.735 52.4 112.375 51.32C113.015 50.2267 113.882 49.3733 114.975 48.76C116.068 48.1467 117.268 47.84 118.575 47.84C119.895 47.84 121.095 48.1467 122.175 48.76C123.268 49.3733 124.128 50.2267 124.755 51.32C125.395 52.4 125.715 53.62 125.715 54.98C125.715 56.3533 125.395 57.5867 124.755 58.68C124.128 59.76 123.268 60.6067 122.175 61.22C121.082 61.8333 119.882 62.14 118.575 62.14ZM118.575 59.64C119.415 59.64 120.155 59.4533 120.795 59.08C121.435 58.6933 121.935 58.1467 122.295 57.44C122.655 56.7333 122.835 55.9133 122.835 54.98C122.835 54.0467 122.655 53.2333 122.295 52.54C121.935 51.8333 121.435 51.2933 120.795 50.92C120.155 50.5467 119.415 50.36 118.575 50.36C117.735 50.36 116.988 50.5467 116.335 50.92C115.695 51.2933 115.195 51.8333 114.835 52.54C114.475 53.2333 114.295 54.0467 114.295 54.98C114.295 55.9133 114.475 56.7333 114.835 57.44C115.195 58.1467 115.695 58.6933 116.335 59.08C116.988 59.4533 117.735 59.64 118.575 59.64ZM137.518 52.24C137.198 51.6533 136.758 51.2067 136.198 50.9C135.638 50.5933 134.985 50.44 134.238 50.44C133.411 50.44 132.678 50.6267 132.038 51C131.398 51.3733 130.898 51.9067 130.538 52.6C130.178 53.2933 129.998 54.0933 129.998 55C129.998 55.9333 130.178 56.7467 130.538 57.44C130.911 58.1333 131.425 58.6667 132.078 59.04C132.731 59.4133 133.491 59.6 134.358 59.6C135.425 59.6 136.298 59.32 136.978 58.76C137.658 58.1867 138.105 57.3933 138.318 56.38H133.518V54.24H141.078V56.68C140.891 57.6533 140.491 58.5533 139.878 59.38C139.265 60.2067 138.471 60.8733 137.498 61.38C136.538 61.8733 135.458 62.12 134.258 62.12C132.911 62.12 131.691 61.82 130.598 61.22C129.518 60.6067 128.665 59.76 128.038 58.68C127.425 57.6 127.118 56.3733 127.118 55C127.118 53.6267 127.425 52.4 128.038 51.32C128.665 50.2267 129.518 49.38 130.598 48.78C131.691 48.1667 132.905 47.86 134.238 47.86C135.811 47.86 137.178 48.2467 138.338 49.02C139.498 49.78 140.298 50.8533 140.738 52.24H137.518ZM154.25 48.04L149.53 57.14V62H146.73V57.14L141.99 48.04H145.15L148.15 54.42L151.13 48.04H154.25ZM164.424 59.34H158.864L157.944 62H155.004L160.024 48.02H163.284L168.304 62H165.344L164.424 59.34ZM163.664 57.1L161.644 51.26L159.624 57.1H163.664ZM178.061 62L172.981 55.78V62H170.181V48.04H172.981V54.3L178.061 48.04H181.441L175.681 54.96L181.601 62H178.061ZM192.003 59.34H186.443L185.523 62H182.583L187.603 48.02H190.863L195.883 62H192.923L192.003 59.34ZM191.243 57.1L189.223 51.26L187.202 57.1H191.243ZM204.959 62L201.879 56.56H200.559V62H197.759V48.04H202.999C204.079 48.04 204.999 48.2333 205.759 48.62C206.519 48.9933 207.086 49.5067 207.459 50.16C207.846 50.8 208.039 51.52 208.039 52.32C208.039 53.24 207.772 54.0733 207.239 54.82C206.706 55.5533 205.912 56.06 204.859 56.34L208.199 62H204.959ZM200.559 54.46H202.899C203.659 54.46 204.226 54.28 204.599 53.92C204.972 53.5467 205.159 53.0333 205.159 52.38C205.159 51.74 204.972 51.2467 204.599 50.9C204.226 50.54 203.659 50.36 202.899 50.36H200.559V54.46ZM220.071 48.04V50.3H216.351V62H213.551V50.3H209.831V48.04H220.071ZM230.674 59.34H225.114L224.194 62H221.254L226.274 48.02H229.534L234.554 62H231.594L230.674 59.34ZM229.914 57.1L227.894 51.26L225.874 57.1H229.914Z" fill="black"/>
<g clip-path="url(#clip0_2005_30)">
<path d="M39.8459 0.154088C39.263 1.57728 38.2881 3.07749 37.2898 4.08209C36.3618 5.01303 35.7722 5.36129 34.0201 6.01093C31.4171 6.97535 30.3618 7.55133 29.3635 8.55258C28.9481 8.96782 28.6432 9.37636 28.4255 9.81169C28.2915 10.0762 28.0972 10.6221 28.0436 10.89L28.0034 11.0775L27.6281 10.8967C27.1859 10.6857 26.5695 10.4781 26.1072 10.3843C25.1089 10.1834 23.9933 10.2001 23.0151 10.4345C22.2111 10.6254 21.8426 10.7661 20.7035 11.3186C19.6717 11.8209 19.3199 11.9615 18.6633 12.1424C16.5662 12.7217 14.2982 12.5476 12.0268 11.63C11.7789 11.5296 11.5544 11.4391 11.531 11.4291C11.5008 11.4157 11.4908 11.4894 11.4908 11.7271C11.4908 12.5174 11.2395 13.6694 10.871 14.5702C10.4422 15.6217 9.92965 16.422 9.16248 17.2458C7.21608 19.3353 5.96315 22.031 5.54774 25.0314C5.44054 25.8083 5.41039 26.2638 5.41374 27.2416C5.41374 28.2998 5.44724 28.8222 5.58124 29.8368C5.94975 32.6062 6.98493 35.4726 8.56617 38.088C8.80067 38.4731 8.80402 38.4865 8.67672 38.3425C7.22613 36.7418 5.9531 34.4245 5.25629 32.124C4.58292 29.887 4.32496 27.9113 4.36516 25.2324C4.38526 23.98 4.41541 23.471 4.54272 22.3425C4.57287 22.0779 4.58962 21.8569 4.57957 21.8469C4.57287 21.8368 4.43551 22.0377 4.27806 22.2922C2.94138 24.4588 1.8861 27.6803 1.56114 30.5903C1.45729 31.5279 1.43049 32.1407 1.45059 33.2826C1.47404 34.7259 1.57454 35.687 1.8459 37.003C2.76382 41.4701 5.24958 45.6962 9.14238 49.4065C9.43049 49.6777 9.68175 49.9189 9.6985 49.9356C9.7655 50.0026 9.27974 49.7079 8.76717 49.373C5.74875 47.3939 3.32999 44.4906 1.72865 40.9109C1.16918 39.6618 0.804024 38.6271 0.351762 36.9862C0.224459 36.5308 0.170858 36.3734 0.157457 36.4337C0.144057 36.4806 0.110556 36.8188 0.0804055 37.1838C0.0134039 38.0076 0.0301543 40.0335 0.113906 40.9544C0.321612 43.2047 0.710221 45.1436 1.34674 47.0825C2.83752 51.63 5.49079 55.2265 9.19933 57.7347C9.933 58.2269 10.7035 58.6757 11.5745 59.1043C13.1692 59.8946 14.6164 60.4237 16.5327 60.9193L17.3032 61.1168L16.7337 61.1001C13.005 60.9762 9.19933 59.3186 5.96315 56.4052C4.55612 55.1394 3.50084 53.9574 2.19766 52.196C1.94305 51.851 1.72865 51.5731 1.72195 51.5798C1.70185 51.5999 1.9397 52.6246 2.05696 53.0264C2.44556 54.3626 2.96483 55.6384 3.68175 57.0448C4.74707 59.1378 6.01005 60.9025 7.58794 62.5166C10.8543 65.8552 15.0486 67.8443 20 68.3935C21.0151 68.5074 21.4874 68.5308 22.9012 68.5308C24.4992 68.5308 24.4288 68.5141 23.8191 68.7384C23.1357 68.9862 22.0737 69.2173 21.1223 69.3245C20.5896 69.3814 18.8777 69.3814 18.325 69.3245C15.5276 69.0264 12.9782 68.0888 10.3618 66.3977C10.0804 66.2169 9.84255 66.0695 9.83585 66.0695C9.8057 66.0695 10.268 66.9 10.4489 67.1679C11.0888 68.1223 12.0369 69.147 13.0787 70.0143C15.9297 72.3885 19.7052 73.9021 24.0369 74.4078C25.2898 74.5518 25.9833 74.5886 27.5544 74.5886C28.9581 74.5852 29.6449 74.5585 30.7873 74.4546L31.005 74.4346L31.0821 74.5886C31.3199 75.0842 31.8694 75.8912 32.3484 76.4471C34.7739 79.2734 38.5226 80.5459 42.1541 79.7791C43.1055 79.5781 44.1374 79.1964 44.9749 78.7376C46.6633 77.8134 48.0838 76.4371 49.0285 74.8096C49.1859 74.5417 49.2496 74.4613 49.2998 74.4647C50.469 74.5986 53.3869 74.6321 54.6734 74.5317C57.799 74.2805 60.335 73.6711 62.7705 72.5861C65.5444 71.3504 68.0737 69.3379 69.5109 67.2248C69.7153 66.9235 70.1977 66.0695 70.1642 66.0695C70.1575 66.0695 69.9196 66.2169 69.6382 66.3977C67.0251 68.0888 64.469 69.0264 61.6751 69.3245C61.1223 69.3814 59.4104 69.3814 58.8777 69.3245C57.9263 69.2173 56.8643 68.9862 56.1809 68.7384C55.5578 68.5107 55.5243 68.5241 56.6734 68.5409C61.4841 68.6145 65.6382 67.5028 69.1457 65.2056C72.7203 62.8682 75.5746 59.2516 77.3065 54.8716C77.5276 54.3123 77.8158 53.4785 77.9565 52.9829C78.0637 52.6112 78.2948 51.5965 78.2781 51.5798C78.2747 51.5731 77.99 51.9415 77.6483 52.3969C76.6767 53.6962 75.9096 54.5903 74.9079 55.5848C72.3082 58.1667 69.3333 59.9214 66.2513 60.6782C65.2462 60.926 64.2446 61.0666 63.2663 61.1001L62.6968 61.1168L63.4673 60.9193C65.3668 60.4304 66.8174 59.9013 68.392 59.121C71.2496 57.7112 73.5779 55.7991 75.4439 53.3278C78.0536 49.8686 79.6047 45.3579 79.933 40.268C80.0067 39.1294 79.9498 36.8021 79.8392 36.4438C79.8225 36.3902 79.7555 36.5944 79.6014 37.147C78.2278 42.1533 75.7454 46.0176 72.1709 48.7167C71.6047 49.142 70.1106 50.1131 70.3183 49.9189C73.3869 47.0423 75.4338 44.2897 76.8007 41.2056C78.2848 37.8536 78.8375 34.2805 78.4422 30.6237C78.1206 27.6702 77.0519 24.4253 75.6717 22.2085C75.541 22.0009 75.4271 21.8368 75.4204 21.8469C75.4104 21.8535 75.4372 22.1516 75.474 22.5099C75.598 23.6652 75.6181 23.9733 75.6349 25.2391C75.6617 26.9737 75.5813 28.1491 75.3434 29.5589C75.0151 31.5011 74.5059 33.1085 73.6851 34.7761C73.0352 36.0955 72.4188 37.0499 71.5511 38.0746C71.1692 38.5266 70.6901 39.0323 70.7605 38.9117C70.7873 38.8649 70.9916 38.5266 71.2127 38.1583C72.9615 35.255 73.9565 32.4287 74.3049 29.378C74.593 26.8498 74.3685 24.4555 73.6416 22.3023C73.3936 21.5689 73.2161 21.1436 72.861 20.427C72.2345 19.1679 71.5779 18.2202 70.6466 17.2257C69.2965 15.7857 68.5059 13.9674 68.3317 11.8979L68.2915 11.4224L68.057 11.5262C65.7186 12.5308 63.3099 12.7451 61.139 12.139C60.469 11.9515 60.0235 11.7707 59.1792 11.3454C57.5779 10.5384 56.5025 10.247 55.1424 10.247C54.0436 10.247 53.0419 10.4781 52.1206 10.9368L51.8258 11.0842L51.8057 10.9938C51.4338 9.30938 50.3618 8.08712 48.3752 7.08586C47.6851 6.73425 47.2496 6.55342 45.9699 6.07456C44.3585 5.4718 44.1072 5.35124 43.474 4.89917C42.3819 4.10888 41.2529 2.71248 40.4322 1.12186C40.2915 0.847265 40.124 0.499002 40.0637 0.35166C40.0034 0.204318 39.9431 0.0703709 39.9297 0.0536275C39.9129 0.0368841 39.8761 0.080417 39.8459 0.154088ZM40.0972 1.33617C40.9916 3.11767 42.392 4.72839 43.7621 5.55551C44.0871 5.75308 44.5762 5.9674 45.3266 6.24534C46.4556 6.66393 46.8342 6.81127 47.2462 6.9854C49.9598 8.13735 51.2429 9.49691 51.4874 11.4793C51.5042 11.6166 51.5276 11.7338 51.5343 11.7439C51.5444 11.7506 51.6415 11.6903 51.7521 11.6099C52.1876 11.2885 52.8777 10.9904 53.5745 10.8196C54.1709 10.6723 54.4791 10.6388 55.1591 10.6388C55.8392 10.6388 56.2479 10.6924 56.9313 10.8632C57.5645 11.0239 57.9397 11.1713 58.8442 11.62C59.7253 12.0553 60.1005 12.2127 60.7471 12.4203C61.6081 12.6949 62.402 12.8222 63.3869 12.8489C64.7035 12.8824 65.7789 12.7217 67.1122 12.2897C67.3836 12.2026 67.6014 12.139 67.598 12.1524C67.2362 12.8222 66.9313 13.8569 66.8375 14.7409C66.7906 15.1562 66.7906 16.0335 66.8342 16.4789C66.9715 17.8184 67.397 19.2751 68.0168 20.5107C68.8677 22.2085 69.1993 23.8828 69.1323 26.1533C69.0385 29.5622 68.1005 32.3684 66.2379 34.8431C65.0218 36.4572 63.1055 38.1382 61.3903 39.0959C58.6164 40.6464 56.603 42.7225 55.34 45.3245C54.0503 47.9867 53.7219 50.9067 54.3216 54.4329C54.4724 55.3069 54.5193 55.9297 54.4958 56.6597C54.4221 58.7493 53.8426 60.4404 52.7538 61.7397C51.9531 62.6907 50.4824 63.6752 49.2462 64.0871C48.4489 64.3483 47.7655 64.4454 46.8844 64.4186C46.0871 64.3952 45.6382 64.2747 45.0084 63.9096C44.6767 63.7188 44.2345 63.2734 44.0771 62.9653C43.5846 62.0143 43.7957 60.8054 44.7136 59.3052C45.1457 58.5986 45.3802 58.0695 45.6147 57.2525C45.8794 56.3249 45.9967 55.4944 45.9967 54.5166C45.9967 53.6359 45.923 53.0532 45.7085 52.2294L45.6214 51.9013L45.675 51.0741C45.8962 47.7556 45.8057 44.5744 45.407 41.5605C45.3635 41.219 45.3333 40.9377 45.34 40.931C45.3601 40.9075 45.7152 42.391 45.8426 43.0306C46.4422 46.0344 46.6968 49.0984 46.6566 52.8088C46.6365 54.7677 46.5997 55.558 46.4992 56.3751C46.3953 57.2056 46.3652 57.6041 46.3652 58.1734C46.3652 59.1043 46.5025 59.8243 46.8007 60.427C47.1491 61.1403 47.7085 61.6191 48.4255 61.8201C48.6399 61.8803 48.7839 61.8971 49.129 61.8971C49.6382 61.9004 49.9029 61.8402 50.4087 61.5991C52.1273 60.7887 53.2094 59.1076 53.4372 56.8975C53.4874 56.4186 53.4573 55.1261 53.3869 54.6673C53.3568 54.4831 53.2965 54.1382 53.2496 53.9004C53.0318 52.7686 52.9481 51.8109 52.9749 50.6824C53.0251 48.6129 53.4573 46.8414 54.3551 45.0231C55.0988 43.5195 56.0034 42.3006 57.3601 40.9712C58.191 40.1541 59.2563 39.2834 60.0436 38.7811C61.8024 37.6593 62.6935 36.9795 63.732 35.9649C66.1474 33.6108 67.5276 30.9385 67.923 27.8611C68.1106 26.3944 68.0637 25.0817 67.7689 23.635C67.5745 22.6773 67.3735 22.0176 66.5997 19.774C66.3384 19.0239 66.1642 18.2671 66.0402 17.3462C65.9933 16.9879 65.9799 16.6765 65.9799 15.8561C65.9833 14.8146 66.0067 14.4931 66.1441 13.7196C66.1675 13.5756 66.1776 13.4651 66.1675 13.4684C66.1575 13.4751 66.0034 13.5488 65.8292 13.6392C65.2529 13.9272 64.603 14.0478 63.6349 14.0444C62.0436 14.0377 60.3987 13.6024 58.6767 12.725C57.6583 12.206 57.0285 11.9783 56.1474 11.8142C55.8359 11.7539 55.6382 11.7405 55.1089 11.7405C54.5293 11.7405 54.4087 11.7506 54.0335 11.8309C53.0084 12.0486 52.1206 12.494 51.2362 13.2374L50.8978 13.522L50.8777 13.0666C50.8074 11.5597 50.0771 10.103 48.8911 9.11181C48.0905 8.44208 47.2797 8.01344 45.9833 7.57142C43.1725 6.6137 41.2931 5.30771 40.1039 3.48938C40.0067 3.33868 39.9163 3.21478 39.9029 3.21478C39.8928 3.21478 39.8091 3.33199 39.7152 3.47263C39.4338 3.90461 39.1022 4.3165 38.6968 4.73509C37.5109 5.94731 36.0168 6.81797 33.8024 7.58481C32.7873 7.93643 32.2312 8.19762 31.5678 8.63965C29.99 9.68779 29.0988 11.1779 28.9447 13.0264C28.9213 13.2742 28.9012 13.4818 28.8978 13.4852C28.8911 13.4919 28.794 13.4115 28.6734 13.3077C27.7487 12.5074 26.8174 12.0319 25.7219 11.8142C25.2261 11.7171 24.2479 11.707 23.7521 11.7975C22.8375 11.9649 22.2982 12.1558 21.1558 12.725C20.0201 13.2876 19.2496 13.5689 18.1943 13.8134C16.4858 14.2052 14.7772 14.1114 13.856 13.5723C13.7487 13.512 13.6549 13.4618 13.6516 13.4684C13.6482 13.4751 13.6784 13.6962 13.7186 13.9641C13.9464 15.4174 13.9062 16.9812 13.6047 18.4078C13.4673 19.0474 13.3735 19.3789 13.0687 20.2361C12.0536 23.106 11.7521 24.5794 11.8023 26.4379C11.8593 28.4069 12.2647 30.1348 13.072 31.8494C14.1977 34.2303 16.2647 36.4873 18.8777 38.1918C19.1558 38.3726 19.531 38.6204 19.7119 38.7376C20.7069 39.3906 21.9598 40.4287 22.7839 41.2826C25.129 43.707 26.4791 46.5199 26.7806 49.6108C26.9246 51.0842 26.8576 52.3801 26.5528 53.9641C26.392 54.8012 26.3518 55.2265 26.3518 56.0402C26.3518 56.9946 26.4489 57.6744 26.7035 58.4479C26.9883 59.322 27.3735 59.9482 28.0235 60.5978C29.1926 61.7665 30.4456 62.1717 31.6047 61.7464C31.9498 61.6191 32.2345 61.435 32.5025 61.1537C32.8409 60.8021 33.0452 60.4605 33.196 60.0084C33.4874 59.1177 33.531 58.0428 33.3333 56.5124C33.1457 55.0591 33.0888 52.139 33.1993 49.7447C33.2362 49.008 33.2864 48.2278 33.3199 47.9264L33.34 47.7456L33.5444 47.9431C33.6583 48.0503 33.8593 48.2278 33.99 48.3316L34.2278 48.5225L34.2513 49.1319C34.3953 53.013 35.1424 57.5639 36.1675 60.8523C36.1809 60.8992 36.1139 60.9461 35.8526 61.0767C35.1658 61.4216 34.3384 61.954 33.6851 62.4731C33.1022 62.9352 32.1508 63.8996 31.8459 64.3316L31.799 64.4019L31.4338 64.3316C30.2881 64.1139 29.1926 63.5848 28.0737 62.7175C26.5863 61.5656 25.732 60.0084 25.4104 57.8753C25.2563 56.8473 25.273 55.692 25.4606 54.6137C25.7152 53.1235 25.7755 52.3299 25.7521 50.9435C25.732 49.8787 25.6851 49.3697 25.5276 48.5392C25.1223 46.4329 24.2345 44.5174 22.861 42.7962C22.469 42.3073 21.4405 41.2525 20.9548 40.8473C20.201 40.2211 19.4204 39.6819 18.4757 39.1461C16.4523 37.9942 14.5528 36.2797 13.2529 34.4278C11.2965 31.6417 10.4121 28.0921 10.7236 24.2947C10.8342 22.9352 11.1524 21.8301 11.8358 20.427C12.4322 19.2014 12.8007 17.9523 12.9514 16.643C12.9916 16.3081 13.0017 15.9934 12.9883 15.4207C12.9715 14.5568 12.9079 14.1013 12.7102 13.4249C12.5997 13.0398 12.3384 12.3801 12.2412 12.2294C12.2111 12.1859 12.1943 12.1457 12.201 12.139C12.2077 12.1323 12.4623 12.206 12.7638 12.3031C13.8627 12.6614 14.7772 12.8222 15.8828 12.8489C16.9146 12.8757 17.6482 12.7987 18.593 12.5576C19.3936 12.3533 19.8794 12.1625 20.9883 11.6133C21.4137 11.4023 21.9431 11.1646 22.1608 11.0875C23.7454 10.525 25.263 10.4781 26.7236 10.9536C27.1859 11.1043 27.8191 11.4124 28.0938 11.62C28.1977 11.697 28.2848 11.7539 28.2915 11.7472C28.2982 11.7439 28.3183 11.6099 28.3417 11.4525C28.5595 9.80164 29.4941 8.59277 31.34 7.57812C32.0235 7.20306 32.6566 6.93182 34.1876 6.36254C35.2965 5.95066 35.8828 5.68611 36.3082 5.40147C37.5745 4.56095 38.7839 3.13776 39.6817 1.42659C39.8057 1.19553 39.9129 1.00465 39.9196 1.00465C39.9263 1.00465 40.0067 1.15534 40.0972 1.33617ZM40.0402 4.07539C40.5829 4.8322 41.4472 5.64928 42.3451 6.25874C43.3099 6.91508 44.3049 7.39059 45.8124 7.91968C46.5595 8.18088 46.8945 8.31817 47.3099 8.52579C48.5762 9.16204 49.4673 10.036 50 11.1612C50.2881 11.7774 50.4188 12.2629 50.4891 12.9795C50.536 13.4818 50.4858 14.1348 50.3618 14.5836C50.3518 14.6204 50.5695 14.4228 50.8409 14.1482C51.8794 13.0967 52.7236 12.5677 53.8258 12.2763C54.3049 12.1491 54.7102 12.1122 55.3367 12.1323C56.4188 12.1692 57.2395 12.417 58.6097 13.1269C60.3886 14.0444 62.5796 14.5601 64.1642 14.4329C64.67 14.3927 65.0586 14.3291 65.4037 14.2286C65.531 14.1918 65.6416 14.1683 65.6516 14.1784C65.6617 14.1884 65.6483 14.3793 65.6248 14.607C65.5477 15.2834 65.5678 16.7033 65.6583 17.3965C65.8191 18.6087 65.9699 19.1813 66.5327 20.7619C67.0519 22.2119 67.397 23.5312 67.5611 24.6798C67.6449 25.2759 67.6449 26.9402 67.5611 27.6267C67.3635 29.2106 66.9749 30.5333 66.3015 31.8728C65.6148 33.2424 64.7906 34.3642 63.6047 35.5463C62.268 36.8791 60.9447 37.8368 58.7873 39.0356C56.7605 40.1574 54.8174 42.0461 53.4941 44.1692C52.4757 45.8033 51.7253 47.7958 51.3233 49.9289C51.0888 51.1646 51.0553 51.3353 50.9715 51.5898C50.861 51.9381 50.6901 52.2361 50.5494 52.3333C50.2446 52.5442 49.8258 52.2328 49.598 51.6233C49.5477 51.4927 49.4841 51.1713 49.4305 50.8096C49.0452 48.1273 48.3585 45.4517 47.4372 43.0474C46.7638 41.2893 45.8292 39.414 45.0017 38.165C44.8442 37.9272 44.7236 37.7296 44.7303 37.7263C44.7337 37.723 45.0184 37.6258 45.3601 37.5153C47.5142 36.8088 48.9749 35.8343 50.3585 34.18C51.6616 32.6196 52.7437 30.5467 53.1692 28.7987C53.2295 28.5509 53.3903 28.4237 53.8024 28.2964C54.1541 28.1893 54.325 28.1457 54.2446 28.1826C54.1039 28.2462 54.0737 28.5643 54.1977 28.6748C54.3987 28.8556 54.7404 28.705 54.7404 28.4371C54.7404 28.3466 54.6164 28.1993 54.4992 28.1524L54.3987 28.1122L54.593 28.0319C55.407 27.7037 56.0335 27.1076 56.3886 26.3274C56.4757 26.1332 56.4958 26.1131 56.5193 26.1733C56.5528 26.2671 56.6767 26.3542 56.7772 26.3542C57.062 26.3542 57.1859 26.0494 56.9849 25.8452C56.8811 25.7447 56.8007 25.7313 56.6432 25.8016C56.5863 25.8251 56.5863 25.815 56.6365 25.6811C56.7705 25.2926 56.9816 24.2613 57.0352 23.7054C57.0653 23.414 57.0285 23.3404 56.8476 23.3404C56.5059 23.3404 56.1709 23.7188 56.0335 24.2546C55.9933 24.4186 55.9833 24.4287 55.8761 24.4387C55.6784 24.4521 55.4673 24.5124 55.3702 24.5827C55.263 24.6597 55.1424 24.8741 55.1424 24.9846C55.1424 25.0582 55.139 25.0582 55.0452 24.9678C54.8811 24.8104 54.794 24.8473 54.5293 25.1989C54.2747 25.5371 54.1642 25.6141 53.6784 25.805C53.0452 26.0494 52.8275 26.2604 52.5662 26.8866C52.4322 27.1947 52.3886 27.2617 52.1039 27.5697C50.8342 28.936 49.3501 31.1461 48.7906 32.5057C48.7236 32.6664 48.66 32.8138 48.6499 32.8305C48.6432 32.8473 48.593 32.6564 48.5427 32.4119C48.1742 30.6204 47.407 28.6011 46.5159 27.0741L46.2613 26.6422L47.1893 24.2947C47.6985 23.0055 48.1675 21.8469 48.2345 21.7196C48.325 21.5455 48.4523 21.3914 48.7638 21.0834C49.2127 20.6346 49.3434 20.4237 49.4874 19.9046C49.5578 19.6535 49.5611 19.5564 49.5712 18.1499L49.5846 16.6597L49.3166 17.1018C48.9179 17.7648 48.7973 17.9255 48.4355 18.314C47.7722 19.0206 47.531 19.4057 47.5343 19.7573C47.5343 20.072 47.6717 20.3065 47.9598 20.4839C48.0201 20.5174 48.0101 20.5342 47.8426 20.6849C47.4774 21.0097 47.3501 21.1604 47.196 21.4517C47.1122 21.6158 46.6466 22.6371 46.1642 23.7255C45.6817 24.8104 45.2797 25.7079 45.2697 25.7179C45.2395 25.7481 44.5595 25.0147 44.2948 24.6631C43.5075 23.6116 43.0352 22.4697 42.8844 21.2307C42.8342 20.8289 42.8409 20.1424 42.9012 19.4224C43.005 18.2169 42.9581 16.7066 42.8007 16.0369L42.7571 15.8494L43.0385 15.1997C43.3132 14.5568 43.5075 14.0109 43.4707 13.9741C43.4472 13.9507 43.0888 14.098 42.7638 14.2621C42.6365 14.3291 42.5193 14.386 42.5059 14.3927C42.4958 14.3994 42.4322 14.2922 42.3652 14.1549C42.2379 13.8904 42.0201 13.5823 41.8325 13.4015L41.7186 13.291L41.799 12.9996C41.9029 12.6212 41.9163 12.1759 41.8325 11.9314C41.7554 11.7171 41.5645 11.4927 41.3534 11.3789C41.206 11.2985 41.1089 11.2684 40.794 11.2014C40.7169 11.1846 40.6399 11.0909 40.3685 10.6723C39.8995 9.95233 39.9531 10.0093 39.8794 10.1399C39.8225 10.237 39.2395 11.1512 39.2127 11.1779C39.206 11.1846 39.1055 11.2081 38.9849 11.2349C38.5662 11.3219 38.268 11.5396 38.1173 11.8711C38.0101 12.1055 38.0101 12.5877 38.1206 12.9996L38.1977 13.2943L38.0369 13.4684C37.8392 13.6895 37.6583 13.9674 37.5511 14.2119C37.5075 14.3123 37.4606 14.3994 37.4439 14.3994C37.4305 14.3994 37.2864 14.3324 37.1256 14.252C36.9615 14.1717 36.737 14.0645 36.6198 14.0176C36.4422 13.944 36.4154 13.9406 36.4288 13.9908C36.4389 14.021 36.4791 14.1482 36.5159 14.2721C36.5528 14.3927 36.6968 14.7677 36.8342 15.1026L37.0821 15.7087L37.0184 16.0168C36.9146 16.5124 36.8811 16.9142 36.8811 17.6677C36.8811 18.3106 36.938 19.1579 37.0184 19.7238C37.0653 20.0486 37.0586 20.8992 37.0017 21.301C36.9012 22.0679 36.6935 22.7376 36.3317 23.4643C35.8493 24.4421 35.2161 25.2424 34.3953 25.9289C34.0503 26.2169 34.0168 26.2537 33.7822 26.6522C33.4539 27.2014 32.8275 28.4705 32.5427 29.1503C32.2211 29.9306 31.7889 31.2533 31.5879 32.0804C31.4941 32.4756 31.4104 32.8205 31.4037 32.8473C31.3936 32.8707 31.2563 32.6296 31.0955 32.3115C30.3116 30.761 29.1725 29.1369 27.7621 27.5631L27.3601 27.1177L27.2529 26.7728C27.1256 26.3743 26.9414 26.0059 26.7437 25.7615L26.5997 25.584L27.1625 24.9812C27.4707 24.6463 27.7186 24.3651 27.7152 24.3584C27.7119 24.3483 27.4472 24.124 27.129 23.8594L26.5494 23.3772L25.8526 24.0771L25.1558 24.7769L25.0352 24.6966C24.9682 24.6497 24.871 24.6129 24.8174 24.6129C24.6834 24.6129 24.6466 24.7301 24.6667 25.0582L24.6834 25.3194L24.3719 25.0214C24.0838 24.7401 23.8526 24.5794 23.742 24.5794C23.7085 24.5794 23.6851 24.5224 23.6683 24.3952C23.6382 24.1474 23.5377 23.7991 23.4338 23.5848C23.2898 23.2935 23.0285 23.1227 22.9213 23.2499C22.8308 23.3605 22.7806 24.4823 22.8476 24.8942C22.8677 25.0147 22.9079 25.1219 22.9514 25.1687C23.0117 25.2324 23.0218 25.2692 23.0017 25.3831C22.9749 25.5639 23.0285 25.7648 23.129 25.8452C23.1926 25.8954 23.2094 25.9389 23.2094 26.0628C23.2094 26.17 23.2395 26.2705 23.3032 26.3877L23.397 26.5584L23.1122 26.8498C22.9581 27.0105 22.6231 27.3521 22.3685 27.6133L21.9062 28.0821L22.2245 28.3734C22.402 28.5342 22.6868 28.792 22.861 28.9494L23.1759 29.2374L23.856 28.5074C24.2278 28.1055 24.5427 27.7673 24.5561 27.7506C24.5695 27.7372 24.6432 27.764 24.727 27.8075C25.0921 28.0118 25.6348 28.1625 26.0938 28.1926L26.4121 28.2127L26.4757 28.3801C26.7806 29.1872 27.2127 30.1549 27.6147 30.9419C28.6566 32.9779 29.7789 34.535 30.9012 35.4894C31.0586 35.6233 31.0754 35.63 31.2864 35.63C32.1139 35.63 34.258 35.2583 35.5109 34.8967C35.7588 34.823 35.9699 34.7728 35.9766 34.7795C35.9833 34.7862 35.9129 35.0674 35.8191 35.4023C35.6348 36.0553 35.4238 36.8925 35.3132 37.3948C35.2496 37.6794 35.2228 37.7296 34.9313 38.165C33.139 40.8071 31.6248 44.6011 30.804 48.5057C30.66 49.1922 30.4121 50.6154 30.3685 51.0172C30.2948 51.6769 29.9632 52.273 29.6147 52.3768C29.1558 52.5141 28.8744 51.9917 28.6097 50.4982C28.2379 48.3952 27.7487 46.8548 26.9648 45.3077C26.2111 43.8142 25.3769 42.6757 24.1407 41.4366C23.0352 40.3349 22.1474 39.6518 20.9715 38.9955C20.6499 38.818 20.1809 38.5467 19.933 38.3994C15.7152 35.8778 13.1055 32.4555 12.3987 28.5141C12.2412 27.6334 12.2111 27.255 12.2111 26.1198C12.2111 24.941 12.2312 24.7267 12.4322 23.7422C12.6298 22.7677 12.8275 22.108 13.5946 19.8912C14.1742 18.2236 14.3853 16.3249 14.191 14.54C14.1508 14.165 14.1508 14.1583 14.2211 14.175C14.258 14.1851 14.4054 14.2219 14.5461 14.2621C15.2529 14.4496 16.3216 14.4998 17.1993 14.386C18.5762 14.2085 20.0067 13.7531 21.3099 13.08C22.2479 12.5978 22.8911 12.3567 23.7018 12.1993C24.1374 12.1122 25.2965 12.1156 25.6951 12.2026C26.4121 12.3567 27.0921 12.6447 27.6851 13.0398C28.1407 13.3479 28.4489 13.6091 28.9916 14.1616C29.2462 14.4228 29.4573 14.6338 29.464 14.6338C29.4673 14.6338 29.4405 14.4864 29.4037 14.3056C29.3132 13.8703 29.3065 12.9929 29.3936 12.5074C29.5209 11.7908 29.8593 10.9703 30.2647 10.4044C31.0653 9.2826 32.1139 8.58607 33.9699 7.93308C35.6717 7.33701 36.8174 6.76104 37.866 5.97075C38.593 5.42491 39.2697 4.75853 39.7052 4.16246C39.8024 4.02851 39.8928 3.91801 39.9062 3.91801C39.9163 3.91801 39.9766 3.98833 40.0402 4.07539ZM40.1005 10.9837L40.2379 11.1846H39.9665C39.8191 11.1846 39.6985 11.1779 39.6985 11.1679C39.6985 11.1445 39.9397 10.7828 39.9531 10.7828C39.9598 10.7828 40.0268 10.8732 40.1005 10.9837ZM40.6499 11.5865C41.2194 11.6468 41.4673 11.8477 41.4975 12.283C41.5109 12.4839 41.4405 12.9695 41.3903 13.0197C41.3802 13.0298 41.3032 12.9996 41.2161 12.9494C40.8677 12.7619 40.5528 12.6815 40.0838 12.6648C39.5611 12.648 39.206 12.7183 38.7906 12.9226L38.5293 13.0499L38.4757 12.8222C38.3719 12.3634 38.4255 11.9883 38.6164 11.8142C38.7303 11.7104 39.0017 11.6133 39.2429 11.5865C39.5913 11.5497 40.3082 11.5497 40.6499 11.5865ZM68.0871 12.9762C68.4154 14.7342 69.1826 16.2311 70.4556 17.5974C70.9615 18.1399 71.3065 18.5819 71.7354 19.2416C72.9916 21.1738 73.7153 23.2801 73.9766 25.7849C74.0402 26.3977 74.0302 28.2629 73.9565 28.9661C73.7186 31.3136 73.1457 33.4299 72.1776 35.5296C71.8895 36.1558 71.7521 36.4136 71.7722 36.283C71.8761 35.6032 71.8794 34.746 71.7789 34.1934C71.5209 32.7937 70.8342 31.548 69.7253 30.4731C69.5276 30.2788 69.2931 30.0578 69.2027 29.9875L69.0452 29.8535L69.129 29.4852C69.4372 28.1357 69.5745 26.5216 69.5109 24.9712C69.4372 23.1562 69.1424 21.9574 68.3585 20.3265C67.5544 18.6489 67.196 17.2022 67.196 15.6217C67.196 14.4463 67.3836 13.5086 67.799 12.6447C67.9799 12.2629 67.9498 12.2261 68.0871 12.9762ZM12.0369 12.715C12.4389 13.579 12.6131 14.4797 12.6097 15.6719C12.6064 16.4521 12.5461 16.9846 12.3752 17.738C12.2077 18.4982 11.8057 19.6602 11.5544 20.1256C10.9414 21.2474 10.4958 22.7008 10.3451 24.0603C10.2747 24.6966 10.2848 26.8632 10.3618 27.5597C10.4288 28.1759 10.5796 29.07 10.7002 29.6024L10.7806 29.954L10.6432 30.0679C10.3551 30.309 9.76885 30.9017 9.53099 31.193C8.80402 32.0871 8.31156 33.1051 8.10721 34.1399C8.00335 34.6522 7.9799 35.5128 8.05361 36.0285C8.08376 36.2395 8.10051 36.417 8.09716 36.4237C8.08041 36.4404 7.60469 35.4458 7.40369 34.977C6.63987 33.1922 6.12731 31.2633 5.91625 29.3847C5.54774 26.103 6.01005 23.2031 7.31994 20.5944C7.92965 19.3822 8.50922 18.5384 9.43719 17.5204C10.1541 16.7334 10.5461 16.1708 10.9581 15.327C11.206 14.818 11.4037 14.3023 11.5578 13.7631C11.665 13.3914 11.8258 12.6145 11.8258 12.4739C11.8258 12.3232 11.8794 12.3868 12.0369 12.715ZM40.6466 13.1369C41.2965 13.3445 41.8794 13.8904 42.0905 14.4898L42.1407 14.6304L41.9062 14.8213C41.7789 14.9251 41.675 15.0189 41.675 15.0323C41.675 15.0423 41.6348 15.0959 41.5913 15.1461L41.5075 15.2399L41.2864 15.116C40.8643 14.8816 40.3752 14.4764 40.0737 14.1214L39.9665 13.9942L39.6683 14.3056C39.3568 14.6304 38.9648 14.9352 38.6198 15.1193L38.4121 15.2299L38.2613 15.0591C38.1776 14.9653 38.0369 14.8347 37.9498 14.7677L37.7957 14.6438L37.8694 14.4563C38.1039 13.887 38.5561 13.4283 39.1055 13.2039C39.5879 13.0063 40.1575 12.9829 40.6466 13.1369ZM40.0704 14.6874C40.4724 15.1193 41.3534 15.6551 42.0268 15.8728C42.1575 15.9163 42.2647 15.9532 42.2714 15.9565C42.2814 15.9666 42.1541 16.2345 42.1273 16.2679C42.124 16.2713 42.0067 16.2244 41.8694 16.1574C41.4439 15.9632 41.1424 15.8962 40.7638 15.913C40.4724 15.9264 40.4087 15.9431 40.1943 16.0503L39.9531 16.1675L39.8158 16.0905C39.34 15.8159 38.6365 15.8527 37.99 16.1943C37.8895 16.2479 37.7957 16.2947 37.7856 16.3014C37.7755 16.3048 37.732 16.2345 37.6918 16.1373C37.6516 16.0436 37.6214 15.9632 37.6281 15.9632C37.6348 15.9599 37.7655 15.913 37.923 15.8594C38.5561 15.6451 39.1826 15.2834 39.6817 14.8414C39.8292 14.7108 39.9598 14.6037 39.9699 14.6037C39.9799 14.6003 40.0235 14.6405 40.0704 14.6874ZM37.5879 14.9787C37.8024 15.1327 38.0235 15.337 38.0235 15.3805C38.0235 15.414 37.8727 15.4777 37.6348 15.548L37.4606 15.5982L37.273 15.1528C37.1692 14.9084 37.0854 14.6974 37.0854 14.684C37.0854 14.6505 37.3635 14.8146 37.5879 14.9787ZM42.7337 14.9251C42.67 15.0691 42.5796 15.2801 42.5293 15.3939L42.4389 15.5982L42.201 15.5178C42.067 15.4743 41.9397 15.4274 41.9129 15.4207C41.8459 15.3939 42.1374 15.106 42.4121 14.9251C42.5327 14.8448 42.6667 14.7577 42.7136 14.7242C42.7605 14.6941 42.8074 14.6706 42.8208 14.6706C42.8342 14.6673 42.794 14.7845 42.7337 14.9251ZM39.5142 16.3718C39.5879 16.4052 39.7152 16.4856 39.7923 16.5526C39.8727 16.6229 39.9464 16.6765 39.9565 16.6765C39.9632 16.6765 40.0369 16.6229 40.1139 16.5593C40.191 16.4957 40.3317 16.4086 40.4221 16.3684C40.7638 16.2177 41.3333 16.3014 41.8258 16.5794L42.0134 16.6832L41.9933 16.8406C41.8091 18.18 41.2596 19.3286 40.3819 20.2227C39.9431 20.6648 40.0201 20.6648 39.5846 20.2328C38.995 19.6535 38.5494 18.9603 38.2479 18.1499C38.1273 17.8251 37.9799 17.2123 37.9397 16.8741L37.9163 16.6832L38.067 16.5961C38.5796 16.2947 39.1457 16.2077 39.5142 16.3718ZM37.5712 17.0448C37.6918 17.8619 37.9799 18.689 38.3551 19.3052L38.4992 19.5396L38.4087 20.1256C38.0905 22.2253 37.6717 24.7301 37.5879 25.0515L37.5544 25.1754L36.9246 25.3295C36.5796 25.4165 36.0469 25.5538 35.7387 25.6342C35.4305 25.7179 35.1692 25.7849 35.1558 25.7849C35.1424 25.7849 35.2295 25.6844 35.3467 25.5572C36.335 24.5258 37.0318 23.2064 37.2998 21.8569C37.4707 21.013 37.4941 20.4136 37.3869 19.5229C37.273 18.5651 37.2362 17.651 37.2797 17.0281C37.3032 16.7267 37.33 16.4555 37.3434 16.422C37.3802 16.3215 37.5176 16.6899 37.5712 17.0448ZM42.5494 17.1319C42.593 17.7347 42.5729 18.7058 42.4958 19.5564C42.4322 20.2629 42.4322 20.7049 42.4958 21.2474C42.6834 22.8515 43.407 24.3617 44.5561 25.5639C44.7303 25.7447 44.8442 25.8854 44.8074 25.8753C44.7705 25.8653 44.2278 25.7079 43.6013 25.5304C42.9749 25.3529 42.4389 25.1955 42.4087 25.1788C42.3719 25.1587 42.3283 25.0147 42.268 24.7066C42.1541 24.144 41.8359 22.2319 41.6047 20.725L41.4271 19.5664L41.5812 19.3019C41.9632 18.6522 42.2814 17.6945 42.3618 16.9611C42.3752 16.8506 42.3987 16.6999 42.4188 16.6263C42.4724 16.4153 42.5059 16.5425 42.5494 17.1319ZM49.129 19.707C49.0988 19.8544 49.0218 20.0888 48.9548 20.2261C48.8543 20.4371 48.7705 20.5409 48.4288 20.8791C48.1139 21.1905 47.9933 21.3345 47.8995 21.5153C47.799 21.7062 46.7839 24.2713 44.8342 29.234C44.7169 29.5388 44.6064 29.8 44.5896 29.8134C44.5762 29.8301 44.5293 29.8201 44.4858 29.7933C44.4422 29.7665 44.3149 29.7163 44.2044 29.6828C44.0938 29.6493 44 29.6191 43.9933 29.6158C43.9732 29.6024 47.3367 22.031 47.5142 21.6928C47.6114 21.5019 47.7387 21.3144 47.8158 21.2407C48.2915 20.7954 48.7571 20.2797 48.8107 20.1424C48.8275 20.0955 48.8442 19.9984 48.8442 19.9281C48.8442 19.7774 48.7538 19.4559 48.7102 19.4559C48.6935 19.4559 48.6097 19.4894 48.526 19.5296C48.4154 19.5831 48.3786 19.6166 48.3953 19.6568C48.4087 19.6836 48.4255 19.7841 48.4322 19.8812C48.4489 20.0386 48.4422 20.0587 48.3618 20.1089C48.2111 20.2093 47.9732 20.0821 47.9196 19.8778C47.8593 19.6367 48.0804 19.265 48.6231 18.689C48.8141 18.4881 49.0117 18.2671 49.0653 18.1968L49.1625 18.0729L49.1725 18.756C49.1792 19.2784 49.1692 19.5028 49.129 19.707ZM39.7152 20.8791C39.9498 21.0599 39.9732 21.07 40.0503 21.0298C40.1943 20.9528 40.7169 20.4772 40.9045 20.2495C41.005 20.129 41.0921 20.0319 41.0955 20.0386C41.0988 20.0419 41.1893 20.581 41.2898 21.234C41.5511 22.8983 41.7253 23.923 41.866 24.6597L41.9866 25.2926L41.8727 25.3898C41.3903 25.7983 40.3417 26.16 39.8158 26.103C39.1859 26.0294 38.392 25.7045 38.0201 25.3596L37.933 25.2792L37.9933 25.0047C38.0737 24.643 38.4523 22.4061 38.6432 21.1637C38.727 20.6212 38.804 20.139 38.8141 20.0955C38.8275 20.0252 38.8576 20.0486 39.1457 20.35C39.3199 20.5342 39.5745 20.7719 39.7152 20.8791ZM3.98325 24.3651C3.93635 25.2893 3.9598 26.9168 4.03685 27.7774C4.40201 31.9197 5.7856 35.4894 8.10386 38.2755C8.44221 38.684 9.19933 39.4609 9.61139 39.8192L9.8593 40.0369L9.6918 40.288C8.94138 41.4065 8.38861 42.7192 8.15411 43.9649C8.0469 44.5208 8.01005 45.4986 8.07036 46.0377C8.17421 46.9251 8.51257 47.8695 8.99833 48.633L9.14908 48.8741L8.63652 48.355C5.56114 45.2474 3.41374 41.6175 2.46232 37.9239C2.01675 36.1993 1.8325 34.746 1.8325 32.9343C1.8325 31.8829 1.8593 31.3939 1.97655 30.4195C2.19096 28.638 2.65327 26.823 3.32329 25.1319C3.54439 24.5693 3.98995 23.5681 4.01005 23.5882C4.0201 23.5949 4.0067 23.9465 3.98325 24.3651ZM76.4657 24.6162C77.3668 26.7225 77.9364 29.0566 78.1273 31.4442C78.1876 32.1909 78.1776 33.8351 78.1106 34.5919C77.7555 38.54 76.335 42.1298 73.7823 45.5421C72.9581 46.6438 72.2613 47.4442 71.1558 48.566C70.4154 49.3194 70.0972 49.6074 70.3752 49.2726C71.0821 48.422 71.5846 47.2667 71.7454 46.1214C71.8191 45.589 71.7957 44.6547 71.6918 44.0721C71.4707 42.8196 70.9447 41.5137 70.2044 40.3885L70.0168 40.1072L70.0938 40.0536C70.2881 39.9163 70.8744 39.3839 71.206 39.0423C72.325 37.887 73.2094 36.6112 74 35.0239C75.196 32.6229 75.8459 30.0076 76.0168 26.9402C76.0536 26.2839 76.0402 24.5894 75.9967 23.8427L75.9799 23.558L76.134 23.8762C76.2178 24.0503 76.3685 24.3852 76.4657 24.6162ZM56.737 23.7154C56.727 23.7757 56.7102 23.9096 56.7002 24.0101C56.6734 24.2746 56.5494 24.8908 56.5159 24.9276C56.4992 24.941 56.4556 24.8908 56.4154 24.8104C56.3752 24.7301 56.3183 24.6363 56.2881 24.6028C56.2412 24.5526 56.2412 24.5124 56.2747 24.3148C56.3417 23.913 56.5226 23.6083 56.6901 23.6083C56.7437 23.6083 56.7504 23.6283 56.737 23.7154ZM23.3132 23.836C23.3568 23.9498 23.4506 24.3617 23.4506 24.4488C23.4506 24.4823 23.4338 24.5124 23.4137 24.5124C23.3936 24.5124 23.3367 24.5425 23.2898 24.5794C23.2094 24.6463 23.2027 24.6463 23.1692 24.5894C23.129 24.5158 23.0988 23.8494 23.129 23.7255C23.1524 23.6384 23.1558 23.6384 23.2161 23.692C23.2496 23.7221 23.2931 23.7857 23.3132 23.836ZM26.9782 24.2077L27.2362 24.4186L27.139 24.5425C27.0854 24.6095 26.8777 24.8238 26.6767 25.0247L26.3116 25.3831L26.1307 25.3228C26.0302 25.2859 25.8359 25.2022 25.6985 25.1353L25.4506 25.008L26.0134 24.4454C26.5662 23.8929 26.5796 23.8828 26.6499 23.9364C26.6868 23.9666 26.8375 24.0905 26.9782 24.2077ZM55.8794 24.6798C56.1407 24.7535 56.3819 25.0114 56.3819 25.219C56.3819 25.2893 56.3685 25.3529 56.3518 25.363C56.335 25.3764 56.2714 25.3228 56.2144 25.2491C56.0201 25.0047 55.8493 24.9645 55.5377 25.0817C55.4405 25.1185 55.3501 25.1487 55.3367 25.1487C55.2898 25.1487 55.3099 24.864 55.3601 24.787C55.4472 24.6698 55.6717 24.6229 55.8794 24.6798ZM23.9062 24.8942C24.0603 24.9645 24.2211 25.1152 24.2211 25.1855C24.2211 25.229 24.0905 25.2223 23.9129 25.1654C23.7688 25.1252 23.7353 25.1252 23.6047 25.1721C23.5243 25.2022 23.4372 25.219 23.4104 25.2056C23.3434 25.1821 23.3099 25.0047 23.3501 24.8975C23.3769 24.8238 23.4003 24.8138 23.5578 24.8138C23.675 24.8138 23.7956 24.8406 23.9062 24.8942ZM25.1893 25.2659C25.2797 25.3295 25.5075 25.4534 25.6985 25.5337C26.1541 25.7347 26.2948 25.8184 26.4489 25.9892C26.6131 26.1733 26.8208 26.6154 26.9179 26.9971C26.9916 27.2985 26.9983 27.3086 27.2596 27.5898C28.8878 29.3412 30.3116 31.4207 31.0754 33.1687L31.263 33.6041L31.2094 34.0394C31.1759 34.2772 31.1424 34.6221 31.1323 34.7996C31.1223 34.9804 31.0988 35.1277 31.0821 35.1277C31.0285 35.1277 30.335 34.4078 30.0469 34.0561C28.995 32.7669 27.9498 30.9452 27.1156 28.9327C26.995 28.648 26.8844 28.3835 26.8643 28.3466C26.8476 28.3098 26.7973 28.1725 26.7571 28.0453L26.6767 27.8109L26.3317 27.8042C25.9196 27.7975 25.5377 27.7238 25.1926 27.5898C24.8007 27.4391 24.8074 27.4626 25.0921 27.1746C25.2295 27.034 25.3702 26.9034 25.4037 26.8866C25.5243 26.8196 26.0134 26.8498 26.2747 26.9402C26.7337 27.0976 26.7873 27.0239 26.4523 26.7058C26.335 26.5953 26.2077 26.4446 26.1709 26.3709C26.0804 26.1934 26.0134 26.1332 25.5075 25.7916C25.0687 25.4936 24.9179 25.3328 24.9682 25.2056C24.9983 25.1286 25.0017 25.1319 25.1893 25.2659ZM56.0235 25.3027C56.1642 25.3965 56.258 25.5706 56.2412 25.7112C56.2245 25.8653 56.1206 25.8452 55.9598 25.6643C55.8325 25.5137 55.8057 25.5003 55.6717 25.5003C55.5611 25.5003 55.474 25.5304 55.3467 25.6074C55.2496 25.6677 55.1491 25.7179 55.1223 25.7179C55.005 25.7179 55.1122 25.4333 55.2663 25.3328C55.5176 25.1687 55.8024 25.1553 56.0235 25.3027ZM54.8677 25.5337C54.8543 25.7816 54.8007 25.8552 54.5226 26.0361C54.3317 26.16 54.2546 26.2403 54.2245 26.3408C54.2111 26.3843 54.1642 26.4212 54.1039 26.4312C53.9163 26.4714 53.4807 26.6556 53.3434 26.756C53.1893 26.8699 53.0653 27.0909 53.0653 27.2516C53.0653 27.4525 53.1926 27.3722 53.5075 26.9837C53.6583 26.7996 53.7957 26.7292 54.3283 26.5752L54.737 26.4546L54.8576 26.525C55.1558 26.7024 55.6851 26.4044 55.6416 26.0863C55.6248 25.9691 55.5444 25.9825 55.4573 26.1198C55.3367 26.3039 55.2831 26.3542 55.1926 26.3542C55.072 26.3542 55.0821 26.2504 55.2295 25.9724C55.3735 25.7045 55.4874 25.6309 55.6885 25.6878C55.8158 25.7213 55.9665 25.8753 56 25.9992C56.0503 26.2035 55.8091 26.6556 55.4673 26.9971C55.0486 27.4124 54.6432 27.6367 53.8928 27.8611C53.3802 28.0151 53.196 28.1022 53.0452 28.2529C52.8878 28.4069 52.8476 28.4973 52.7303 28.9528C52.5729 29.5455 52.3015 30.232 51.8761 31.0926C51.3434 32.1708 50.8476 32.9578 50.1709 33.8016C49.9062 34.1298 48.9581 35.1277 48.9112 35.1277C48.8978 35.1277 48.8777 34.9737 48.8643 34.7828C48.8543 34.5953 48.8275 34.2872 48.8074 34.0997C48.7739 33.7916 48.7772 33.7347 48.8409 33.507C49.0586 32.7133 49.6951 31.4475 50.4188 30.3726C50.9983 29.512 51.8124 28.4605 52.3451 27.8879C52.5628 27.6535 52.6801 27.4994 52.7169 27.3923C52.8844 26.9235 53.1692 26.4982 53.4573 26.2805C53.6214 26.1566 53.8359 26.0494 54.1474 25.9356C54.258 25.8954 54.3451 25.8318 54.4322 25.7246C54.8342 25.229 54.8878 25.2056 54.8677 25.5337ZM24.4188 25.4433C24.6198 25.5237 24.7906 25.6643 24.7906 25.7581C24.7906 25.8351 24.7169 25.8351 24.4724 25.7514C24.2412 25.671 24.057 25.6677 23.8325 25.7347C23.6114 25.8016 23.5276 25.7983 23.4841 25.7213C23.4305 25.6208 23.4439 25.5337 23.5243 25.4333C23.5946 25.3429 23.598 25.3429 23.9163 25.3563C24.1273 25.3697 24.2982 25.3998 24.4188 25.4433ZM37.866 25.7347C38.3451 26.103 38.9983 26.3709 39.6415 26.4647C39.9163 26.5049 40.0134 26.5049 40.2613 26.468C40.9883 26.3609 41.7186 26.0494 42.1374 25.671L42.268 25.5538L43.6181 25.9389C44.3618 26.1499 44.9782 26.3307 44.9849 26.3374C45.0017 26.3542 44.0838 28.4304 44.0603 28.4304C44.0536 28.4304 43.9565 28.3768 43.8493 28.3132C43.5678 28.139 43.2596 28.0084 42.9414 27.9214C42.5528 27.8142 41.7219 27.8142 41.34 27.918C40.9313 28.0319 40.5628 28.1859 40.2446 28.3801L39.9431 28.5576L39.5511 28.3634C38.1776 27.6836 36.9715 27.6501 36.0369 28.2629C35.7923 28.4237 35.3702 28.8355 35.2563 29.0298C35.2228 29.0867 35.1859 29.1336 35.1759 29.1336C35.1658 29.1336 35.0888 29.0398 35.0084 28.926C34.7236 28.5375 34.2312 28.206 33.7353 28.0754C33.6147 28.0419 33.5109 28.0118 33.5042 28.0084C33.4874 27.995 33.8694 27.2784 34.1307 26.8297C34.3451 26.468 34.3585 26.4513 34.5226 26.391C34.7739 26.2972 35.5645 26.0762 36.6432 25.8016C37.1725 25.6677 37.608 25.5538 37.6147 25.5538C37.6181 25.5505 37.732 25.6342 37.866 25.7347ZM24.4221 25.9222C24.5963 25.9758 24.7404 26.093 24.7136 26.1633C24.6968 26.2102 24.6332 26.2202 24.3149 26.2202C24.0503 26.2236 23.9096 26.237 23.8526 26.2705C23.7353 26.3374 23.6951 26.3307 23.6315 26.237C23.5812 26.16 23.5812 26.1466 23.6348 26.0662C23.665 26.0193 23.7387 25.959 23.7956 25.9356C23.9263 25.8787 24.2513 25.872 24.4221 25.9222ZM25.464 26.1733C25.5276 26.2437 25.531 26.2604 25.4908 26.3106C25.464 26.3441 24.9481 26.9034 24.3451 27.5497C23.3635 28.6045 23.2362 28.7284 23.1859 28.6916C23.1524 28.6681 22.9782 28.5074 22.7973 28.3399L22.4724 28.0285L23.1826 27.3019C23.5712 26.9 23.9263 26.5551 23.9699 26.5317C24.0101 26.5082 24.2077 26.4747 24.4054 26.4546C24.8442 26.4145 24.9682 26.3575 24.9849 26.1867C24.9916 26.1231 25.0184 26.0561 25.0452 26.0427C25.072 26.0294 25.0921 25.9858 25.0921 25.949C25.0921 25.8854 25.1055 25.8921 25.2429 25.9892C25.3233 26.0461 25.4238 26.1298 25.464 26.1733ZM46.3752 27.62C46.4791 27.8142 46.5561 27.9816 46.5427 27.995C46.526 28.0051 46.4422 28.0352 46.3484 28.0553C46.1642 28.1022 45.8426 28.2495 45.665 28.3667C45.5846 28.4203 45.5544 28.4304 45.5678 28.3969C45.5779 28.3701 45.6985 28.0687 45.8325 27.7305C46.1139 27.0172 46.0503 27.0306 46.3752 27.62ZM38.191 28.2864C38.6499 28.3768 39.2697 28.6246 39.7588 28.9092L39.9665 29.0298L40.2446 28.8422C40.5997 28.5978 41.0084 28.4103 41.407 28.3065C41.6683 28.2361 41.8024 28.2194 42.1608 28.2194C42.5394 28.2194 42.6365 28.2328 42.8978 28.3098C43.1993 28.4002 43.6315 28.6112 43.8091 28.7485L43.9029 28.8255L43.7487 29.1704L43.598 29.5187L43.1792 29.5053C42.5628 29.4885 42.0369 29.6024 41.5075 29.8703C40.8945 30.1784 40.0369 30.895 39.3501 31.6752L39.2228 31.8192L38.7638 31.8695C38.2948 31.9163 37.6382 32.0201 36.8543 32.1675C36.6064 32.2144 36.3953 32.2412 36.3819 32.2244C36.3685 32.211 36.2647 31.9264 36.1474 31.5949C35.9565 31.0423 35.5578 29.9908 35.4338 29.6995C35.3802 29.5823 35.3836 29.579 35.5209 29.3479C35.5946 29.2206 35.7655 29.0097 35.8962 28.8824C36.4958 28.2864 37.2328 28.0955 38.191 28.2864ZM46.9146 28.6983C47.8158 30.6137 48.4757 33.3295 48.4757 35.1378V35.4961L48.2144 35.6903C47.6449 36.1122 46.6097 36.6514 45.7521 36.9695C44.9112 37.2809 43.8158 37.5689 42.8643 37.7263C42.4422 37.7933 42.2647 37.8067 41.7588 37.8033L41.1558 37.7966L40.67 37.9908C40.2312 38.165 40.1541 38.1851 39.8727 38.2018C39.3434 38.2286 38.6533 38.0679 38.2479 37.8234C38.1407 37.7598 38.0369 37.7062 38.0168 37.7062C37.9967 37.7062 37.7856 37.8937 37.5511 38.1248C37.129 38.5367 36.8811 38.7075 36.7705 38.6673C36.7069 38.6438 36.7035 38.5568 36.7605 38.453C36.7839 38.4128 36.9514 38.2119 37.1357 38.0076C37.5946 37.4952 37.7152 37.3077 37.6348 37.2273C37.5913 37.1838 37.4204 37.2843 37.2529 37.4551C37.1524 37.5555 37.0586 37.6392 37.0419 37.6392C36.928 37.6392 37.2864 36.8791 37.5176 36.6279C37.8727 36.2395 38.2278 36.1792 39.0955 36.3667C39.9632 36.5509 40.4087 36.7016 41.0653 37.0432C41.5745 37.3077 41.464 37.3144 42.0402 36.9728C42.5092 36.6916 43.5578 36.1424 44.1407 35.8711C45.4908 35.2416 46.3518 34.9502 47.2931 34.8029L47.4673 34.7761L46.9782 33.6878C46.3953 32.3818 45.4439 30.1683 45.2898 29.7631C45.1558 29.4015 45.1558 29.4048 45.5779 28.9829C45.9062 28.6514 46.2211 28.4638 46.5494 28.4036C46.6432 28.3835 46.727 28.3701 46.737 28.3667C46.7471 28.3667 46.8275 28.5141 46.9146 28.6983ZM33.7119 28.4672C34 28.5643 34.2412 28.7083 34.4724 28.9226C34.66 29.0967 34.9414 29.4751 34.9414 29.5555C34.9414 29.5723 34.6801 30.0712 34.3585 30.6606C33.3735 32.4756 33.0017 33.1922 32.9112 33.4634C32.8643 33.6074 32.8308 33.7313 32.8409 33.7414C32.8509 33.7514 33.0218 33.6744 33.2228 33.5739C33.8459 33.2592 34.8308 32.9678 36.2312 32.6832C37.5946 32.4052 38.6499 32.2479 39.1591 32.2479H39.3802L39.5812 31.9733C39.8426 31.615 40.4422 31.0155 40.8107 30.7376C41.34 30.3458 41.8995 30.0478 42.3652 29.9172C42.67 29.8301 43.5109 29.8134 43.8392 29.887C44.1474 29.954 44.3417 30.031 44.3015 30.0712C44.2848 30.0846 44.1273 30.1047 43.9531 30.1147C42.7772 30.1817 42.392 30.2386 42.325 30.3458C42.2714 30.4295 42.392 30.4563 42.8074 30.4563C43.2295 30.4563 43.2362 30.4563 43.4439 30.5702C43.7018 30.7108 43.8794 30.905 44.0369 31.2165C44.1742 31.4944 44.2111 31.6585 44.1541 31.7288C44.0905 31.8025 44.0402 31.7456 43.9364 31.4844C43.7621 31.049 43.5511 30.7945 43.2094 30.617C42.9682 30.4931 42.66 30.4865 42.4556 30.6037C42.3752 30.6505 42.3082 30.6974 42.3082 30.7142C42.2881 30.8213 42.2982 30.8247 42.6633 30.8247C42.9816 30.8247 43.0553 30.8347 43.1893 30.9017C43.4841 31.049 43.8191 31.404 43.8694 31.6317C43.8895 31.7121 43.8727 31.702 43.7756 31.558C43.5176 31.1863 42.9983 30.9921 42.5762 31.1093C42.4389 31.1461 42.3183 31.2633 42.3652 31.3069C42.3819 31.3236 42.4925 31.3169 42.6332 31.2868C42.8476 31.2399 42.8844 31.2399 43.0586 31.2901C43.2864 31.3571 43.5779 31.6083 43.7856 31.9197C43.9096 32.1072 43.9665 32.3148 43.8895 32.3148C43.8727 32.3148 43.7923 32.2211 43.7085 32.1039C43.3936 31.6618 43.1993 31.5614 42.7303 31.5848C42.3853 31.6016 42.1474 31.7121 41.6248 32.0804C41.4171 32.2278 41.1926 32.3718 41.129 32.3985C41.062 32.4253 40.8074 32.4722 40.5628 32.5024C40.0603 32.5626 39.665 32.6966 39.1357 32.9913C38.6499 33.2625 37.665 33.738 37.2194 33.9155C35.7286 34.5149 33.8057 34.9837 32.0603 35.178C31.4137 35.2483 31.4807 35.2751 31.5075 34.9502C31.6717 32.9009 32.2245 30.7979 33.1223 28.8088C33.3333 28.3366 33.33 28.3399 33.7119 28.4672ZM45.0586 30.2219C45.196 30.5769 45.9096 32.2345 46.3987 33.3362C46.66 33.9255 46.8811 34.4245 46.8911 34.4446C46.8978 34.468 46.8442 34.4915 46.7437 34.5082C46.3183 34.5718 45.2931 34.9235 44.4556 35.2952L44.0905 35.4559L43.9665 35.0808C43.8995 34.8766 43.7621 34.5015 43.665 34.247C43.5645 33.9892 43.4841 33.7682 43.4841 33.7548C43.4841 33.738 43.5745 33.4936 43.6884 33.2089C43.8493 32.797 43.9096 32.6832 43.9732 32.653C44.0838 32.6028 44.1608 32.4119 44.1508 32.2077C44.1441 32.0737 44.1541 32.0369 44.2144 31.9934C44.3283 31.9163 44.3886 31.7656 44.3886 31.5714C44.3886 31.4274 44.4389 31.26 44.6633 30.684C44.8174 30.2956 44.9514 29.9875 44.9615 29.9975C44.9715 30.0109 45.0151 30.1114 45.0586 30.2219ZM35.1759 30.0813C35.1759 30.088 35.2797 30.3625 35.407 30.6941C35.6315 31.2801 35.9799 32.2613 35.9799 32.3115C35.9799 32.3282 35.789 32.3785 35.5544 32.432C35.0318 32.5459 34.2915 32.7468 33.8895 32.8841C33.7253 32.9377 33.5846 32.9779 33.5779 32.9712C33.5511 32.9477 35.1122 30.0712 35.1491 30.0712C35.1625 30.0712 35.1759 30.0779 35.1759 30.0813ZM69.2931 30.5869C70.0536 31.2633 70.7705 32.3148 71.1323 33.2859C71.3434 33.8552 71.4305 34.3274 71.4506 35.0005C71.4673 35.7003 71.4305 36.0721 71.273 36.6849C71.0184 37.6828 70.5863 38.5233 69.6918 39.759C69.4774 40.057 69.4774 40.057 69.5377 40.1307C69.8526 40.4856 70.5126 41.651 70.7873 42.3441C71.6918 44.6045 71.6047 46.6472 70.526 48.3785C70.2446 48.8372 69.9598 49.1855 69.5008 49.6476C68.9916 50.1533 68.67 50.4178 68.0402 50.8397L67.588 51.1411L67.6751 51.4961C68.1374 53.3412 67.9598 55.414 67.2127 56.9076C66.8844 57.5605 66.593 57.9691 66.0637 58.5149C65.4673 59.1277 64.8878 59.5497 64.0536 59.9716C63.2328 60.3902 62.6499 60.6045 61.6248 60.8623L60.9213 61.0398L60.9012 61.4685C60.8442 62.6338 60.4087 63.9431 59.7454 64.931C58.7839 66.3676 57.3199 67.332 55.3936 67.7941C55.1357 67.8577 54.8007 67.9247 54.6499 67.9482C54.4992 67.9716 54.3585 67.9984 54.3384 68.0118C54.3116 68.0285 54.3149 68.1055 54.3417 68.283C54.3652 68.4404 54.3719 68.7552 54.3618 69.1503C54.3384 70.0076 54.2077 70.5467 53.8694 71.2265C53.4204 72.1139 52.7303 72.7803 51.742 73.2692C51.0385 73.6141 50.3082 73.8351 49.4372 73.959L49.0084 74.0227L48.8409 74.3441C48.4322 75.1411 47.8627 75.8979 47.1055 76.6547C45.4305 78.3224 43.3199 79.327 40.9916 79.5647C40.4925 79.6183 39.1792 79.5882 38.7102 79.5179C37.6348 79.3571 36.7035 79.0691 35.7621 78.6104C32.9581 77.2374 30.9481 74.5451 30.4556 71.5011C30.1374 69.5555 30.4054 67.7137 31.2429 66.0361C32.2178 64.0871 33.8861 62.5032 36.1809 61.3513C36.9246 60.9762 37.5779 60.715 38.526 60.4103C39.7085 60.0285 40.2647 59.7673 40.9012 59.2851C41.9732 58.4781 42.7002 57.2726 42.9313 55.9096C43.0653 55.1127 43.0586 54.0009 42.9179 53.3479C42.5997 51.8946 41.6683 50.7125 40.3015 50.0227L40.0168 49.882L39.5075 49.8586C37.5377 49.7615 35.7923 49.1821 34.4188 48.1675C34.1307 47.9565 33.7957 47.6618 33.8794 47.6953C34.1742 47.8092 37.3132 48.576 37.3434 48.5425C37.3534 48.5325 37.3199 48.4086 37.2663 48.2646C37.1926 48.0536 37.1725 47.9465 37.1725 47.702C37.1725 47.3303 37.263 47.1093 37.5243 46.8314C37.8627 46.4731 38.1776 46.3592 38.7437 46.3893C39.6281 46.4396 40.5662 46.8079 41.6583 47.5346C43.9196 49.0348 45.1591 50.8799 45.5343 53.2943C45.5913 53.666 45.6047 53.9172 45.608 54.4998C45.608 55.481 45.5243 56.1273 45.273 57.0415C45.0553 57.8284 44.8107 58.3944 44.3719 59.121C43.933 59.8477 43.6951 60.3868 43.531 61.0298C43.4472 61.3513 43.4372 61.4584 43.4372 61.8669C43.4405 62.4195 43.5042 62.7075 43.7186 63.116C44.134 63.9163 45.0419 64.5292 46.1307 64.7468C46.7504 64.8707 47.7219 64.8439 48.536 64.6765C50.1575 64.3517 52 63.2433 53.0854 61.9406C54.0335 60.8088 54.6097 59.3621 54.8275 57.5639C54.8945 57.0147 54.9012 55.7924 54.8442 55.2868C54.8208 55.0926 54.7538 54.6338 54.6901 54.2654C54.1776 51.2081 54.402 48.5492 55.3769 46.1817C56.0034 44.6581 56.9012 43.2985 58.0905 42.0796C59.1156 41.0281 60.1106 40.2713 61.5578 39.4475C63.7287 38.2119 65.799 36.283 67.1156 34.2671C67.8225 33.1888 68.4523 31.8527 68.8007 30.7008C68.9079 30.3425 68.9347 30.2855 68.9782 30.3157C69.005 30.3358 69.1457 30.4597 69.2931 30.5869ZM10.9213 30.4161C10.9213 30.5836 11.4338 31.9498 11.7487 32.6162C13.0251 35.3253 15.4573 37.877 18.3082 39.4978C20.6298 40.8171 22.335 42.4345 23.5678 44.4839C25.2563 47.2901 25.7588 50.4982 25.1089 54.3324C24.9548 55.2433 24.9246 55.5815 24.9246 56.3885C24.9246 58.9101 25.6918 60.9795 27.1591 62.4228C28.2781 63.5279 29.7856 64.3718 31.1558 64.6664C31.3501 64.71 31.5142 64.7468 31.5176 64.7502C31.5243 64.7569 31.4372 64.9076 31.3233 65.0884C31.0687 65.4902 30.6667 66.304 30.5025 66.7527C30.3283 67.2215 30.1608 67.851 30.0603 68.4136C29.9766 68.8657 29.9699 68.9662 29.9699 69.9205C29.9665 70.7477 29.9766 71.0155 30.0268 71.327C30.1541 72.1441 30.3652 72.931 30.6365 73.6175C30.7169 73.8217 30.7772 73.9959 30.7672 74.0026C30.737 74.0327 29.9498 73.8921 29.464 73.7715C27.0218 73.152 25.6449 71.6384 25.4606 69.3747C25.4271 68.9695 25.4539 68.3065 25.5142 68.0888C25.5377 68.0051 25.5477 68.0084 25.0586 67.9281C23.8124 67.7204 22.6131 67.2416 21.665 66.5718C21.2596 66.2839 20.6231 65.6644 20.3149 65.2592C19.5109 64.1876 19.0385 62.9184 18.9246 61.512L18.8844 61.0197L18.4791 60.9327C16.3886 60.4806 14.5963 59.5162 13.5075 58.2504C12.6734 57.2826 12.1843 56.1742 11.9699 54.7845C11.8995 54.3123 11.8895 53.0633 11.9565 52.5576C12.0067 52.1524 12.1474 51.4525 12.2111 51.2717L12.258 51.1411L11.9498 50.9469C11.1792 50.458 10.2848 49.6844 9.8057 49.0917C9.13568 48.2613 8.67672 47.2868 8.50587 46.3257C8.41206 45.8 8.40201 44.8657 8.48912 44.3132C8.69682 42.9569 9.34339 41.4065 10.1608 40.2947C10.2446 40.1842 10.3216 40.0469 10.3317 39.9934C10.3518 39.9029 10.3417 39.8829 10.2412 39.8192C10.0369 39.6953 9.41709 38.7543 9.09548 38.0913C8.60637 37.0733 8.40201 36.2328 8.40536 35.2282C8.40536 33.8921 8.86098 32.6765 9.79565 31.4944C10.0536 31.1696 10.8308 30.3726 10.8911 30.3726C10.9079 30.3726 10.9213 30.3927 10.9213 30.4161ZM44.325 30.53C44.2915 30.6204 44.2412 30.741 44.2144 30.8046L44.1675 30.9184L43.9933 30.6941C43.8962 30.5702 43.789 30.4597 43.7588 30.4463C43.7052 30.4262 43.9364 30.3927 44.2613 30.3793L44.3886 30.3726L44.325 30.53ZM42.5796 31.9699C42.5796 31.9867 42.3719 32.4655 42.1173 33.0381L41.6549 34.0829L41.5846 33.8083C41.5444 33.6577 41.4908 33.4768 41.4606 33.4098C41.4137 33.2893 41.407 33.2859 41.3166 33.3261C41.1357 33.4032 40.871 33.5873 40.7035 33.7514C40.5662 33.8787 40.526 33.9021 40.5126 33.8586C40.4489 33.6577 40.2814 33.3797 40.1374 33.2391L39.9699 33.075L39.8459 33.1687C39.6951 33.2859 39.4874 33.6007 39.4305 33.8016C39.407 33.8854 39.3802 33.9557 39.3735 33.9557C39.3668 33.9557 39.2898 33.8954 39.2027 33.8217C39.1156 33.7514 39.0117 33.6643 38.9682 33.6309L38.8911 33.5706L39.4204 33.2793C39.7119 33.1185 39.9967 32.9712 40.0503 32.9477C40.1072 32.9276 40.3551 32.9009 40.6064 32.8875C41.0151 32.864 41.0821 32.854 41.2764 32.7602C41.3936 32.7066 41.6348 32.5425 41.8091 32.3985C42.1541 32.1173 42.5796 31.8795 42.5796 31.9699ZM43.1625 32.0436C43.2965 32.134 43.5544 32.4555 43.541 32.5158C43.5042 32.6464 41.9665 36.5208 41.9364 36.5576C41.9163 36.5811 41.789 36.6614 41.6516 36.7384C41.3635 36.8958 41.3467 36.8958 40.9581 36.725L40.7002 36.6112L40.9447 36.494C41.5444 36.2093 42.0838 35.5999 42.4121 34.833C42.5427 34.5317 42.727 33.959 42.7035 33.9356C42.6901 33.9222 42.2446 34.0294 42.134 34.0729C42.067 34.0997 42.0134 34.237 42.5963 32.9176C42.8107 32.432 42.995 32.0201 43.0017 32.0068C43.0285 31.9666 43.0553 31.9733 43.1625 32.0436ZM40.0637 33.7782C40.2211 34.1064 40.2747 34.7158 40.1977 35.3286C40.1575 35.6769 40.0369 36.273 40.0034 36.3098C39.9464 36.3667 39.8727 36.2897 39.856 36.1558C39.8459 36.0787 39.8057 35.8343 39.7688 35.6133C39.6884 35.1612 39.675 34.4412 39.7353 34.1499C39.7755 33.9624 39.923 33.6208 39.9632 33.6208C39.9766 33.6208 40.0201 33.6911 40.0637 33.7782ZM38.2781 34.0695L38.2446 34.2805L38.0503 34.1934C37.9464 34.1466 37.8593 34.0963 37.856 34.0863C37.856 34.0762 37.9565 34.0227 38.0838 33.9657C38.2077 33.9088 38.3082 33.8586 38.3082 33.8586C38.3082 33.8552 38.2948 33.9523 38.2781 34.0695ZM41.2328 33.9959C41.2529 34.0762 41.2797 34.2336 41.2931 34.3475L41.3132 34.5551L41.1223 34.7326C41.0151 34.8297 40.8543 34.9971 40.7672 35.1009L40.6064 35.2918L40.6198 34.8699C40.6298 34.5484 40.6466 34.4278 40.6901 34.3609C40.7638 34.2537 41.1424 33.8552 41.1725 33.8552C41.1859 33.8552 41.2127 33.9188 41.2328 33.9959ZM39.1491 34.3039L39.2965 34.4647V34.8096C39.2965 35.0005 39.3065 35.1847 39.3199 35.2181C39.3333 35.2516 39.1826 35.111 38.9849 34.9101L38.6231 34.5417L38.6432 34.3073C38.6533 34.1767 38.67 34.0394 38.6801 33.9992C38.7002 33.9222 38.7002 33.9255 38.8509 34.0327C38.9347 34.0896 39.0687 34.2135 39.1491 34.3039ZM37.6482 35.1143C37.7219 35.2617 37.8694 35.4961 37.9699 35.6334C38.124 35.8343 38.1474 35.8845 38.1005 35.8912C37.7789 35.9482 37.0553 36.2596 36.6097 36.5308C35.9598 36.9226 35.6985 37.2541 35.7621 37.5957C35.8191 37.8971 36.0938 37.9172 36.526 37.6593L36.7169 37.5421V37.7631C36.7169 37.9507 36.6968 38.021 36.5863 38.2453C36.4121 38.5869 36.3551 38.8347 36.4188 38.962C36.4925 39.1127 36.6164 39.1327 36.8241 39.0356C36.9213 38.9888 37.0486 38.9184 37.1055 38.8782L37.2127 38.8079L37.1323 39.0222C37.0218 39.3337 36.9514 39.7456 36.9514 40.0972C36.9514 40.653 37.0921 41.1353 37.5343 42.1365C37.7152 42.5384 38.3752 43.8912 38.4121 43.9314C38.4255 43.9482 38.5662 43.8946 39.4807 43.5329C40.9213 42.9603 41.7554 42.5551 42.0871 42.2638C42.5863 41.8251 42.871 41.3764 43.0184 40.787C43.0787 40.5526 43.0854 40.4421 43.072 40.1206C43.0486 39.5547 42.8978 39.0792 42.5628 38.5132C42.4623 38.3425 42.3786 38.1985 42.3786 38.1918C42.3786 38.1884 42.4791 38.175 42.6064 38.1616C42.7303 38.1482 43.1323 38.0779 43.5008 38.0009C44.3618 37.8268 44.3551 37.8268 44.3551 37.8636C44.3551 37.877 44.402 38.0947 44.459 38.3425C44.9112 40.345 45.2462 43.0072 45.3601 45.5187C45.4238 46.9151 45.397 49.3395 45.3065 50.7024L45.2864 51.0206L45.0921 50.6455C44.469 49.4333 43.598 48.4521 42.3049 47.5111C41.0653 46.6037 39.933 46.1114 38.8643 46.0042C38.402 45.9607 38.0905 46.0076 37.7454 46.1784C37.139 46.4764 36.7839 47.049 36.7839 47.7221C36.7839 47.9364 36.7739 48.0201 36.7437 48.0201C36.7203 48.0201 36.2278 47.9029 35.6482 47.7623L34.5963 47.5011L34.6164 46.3458C34.6801 42.9871 35.1256 39.6451 35.9464 36.417C36.1106 35.7774 36.4355 34.6254 36.4556 34.612C36.4623 34.6087 36.6533 34.5384 36.8844 34.4546L37.3032 34.3039L37.407 34.5718C37.464 34.7225 37.5712 34.9636 37.6482 35.1143ZM43.4037 34.6455C43.4707 34.8263 43.5745 35.121 43.6348 35.2952L43.742 35.6133L43.1156 35.9381L42.4858 36.2629L42.7538 35.5865C42.9012 35.2148 43.0754 34.7694 43.139 34.5986C43.206 34.4278 43.263 34.2939 43.2697 34.3006C43.2764 34.3073 43.3367 34.4613 43.4037 34.6455ZM38.258 34.7694C38.4791 34.9168 38.9213 35.3789 39.0988 35.6468C39.3132 35.9749 39.407 36.1323 39.3836 36.1323C39.2965 36.1323 38.8744 35.9883 38.7973 35.9348C38.4958 35.7204 37.9866 35.0105 37.8191 34.5685L37.789 34.4848L37.9464 34.5785C38.0369 34.6288 38.1742 34.7158 38.258 34.7694ZM42.1106 34.5417C42.1106 34.6053 41.8794 35.0474 41.7253 35.2784C41.4305 35.7238 40.9313 36.129 40.5394 36.2495C40.459 36.273 40.459 36.273 40.5695 36.0787C40.8978 35.4894 41.3333 35.0005 41.7923 34.6991C42.0436 34.535 42.1106 34.5015 42.1106 34.5417ZM37.0519 36.7451C37.0519 36.9963 36.4221 37.5723 36.1474 37.5723C36.0536 37.5723 36.0469 37.5656 36.0469 37.4484C36.0469 37.3446 36.0737 37.301 36.2245 37.1537C36.3685 37.013 36.9313 36.6748 37.0285 36.6681C37.0419 36.6681 37.0519 36.7016 37.0519 36.7451ZM38.5595 38.3425C39.0888 38.5199 39.397 38.5769 39.8325 38.5769C40.2747 38.5769 40.392 38.5501 40.928 38.3391C41.2965 38.1918 41.3601 38.175 41.6047 38.175H41.8727L42.0469 38.4161C42.2747 38.7443 42.5293 39.27 42.6164 39.5982C42.7035 39.9398 42.7136 40.4454 42.6332 40.7502C42.536 41.1286 42.3283 41.4735 42.0101 41.7916C41.598 42.2035 41.1089 42.458 39.4305 43.1344L38.6097 43.4659L38.4121 43.0708C37.9062 42.0695 37.5008 41.1118 37.4037 40.6865C37.273 40.1206 37.3501 39.4207 37.6013 38.8983C37.7755 38.54 38.0503 38.165 38.1173 38.1918C38.1474 38.2052 38.3484 38.2721 38.5595 38.3425ZM0.606369 39.1294C2.24791 43.908 5.29649 47.7891 9.24623 50.1399C9.933 50.5451 10.9648 51.0474 11.5779 51.2684L11.7822 51.342L11.7052 51.7004C11.3333 53.4216 11.4807 55.27 12.1106 56.7435C12.66 58.0294 13.5276 59.034 14.8208 59.8812C15.0419 60.0252 15.2127 60.1424 15.2027 60.1424C15.1926 60.1424 14.9246 60.052 14.603 59.9448C10.8509 58.6723 7.7923 56.6363 5.48074 53.8703C2.68007 50.5149 0.974878 46.1114 0.519267 41.0716C0.442215 40.201 0.375213 38.5702 0.418764 38.6137C0.425464 38.6237 0.509216 38.8548 0.606369 39.1294ZM79.5846 39.27C79.4606 42.8364 78.8141 45.9406 77.598 48.7903C75.407 53.9272 71.588 57.5907 66.3149 59.6166C65.8158 59.8042 64.4288 60.2763 64.3652 60.2763C64.3518 60.2763 64.4757 60.1993 64.6399 60.1055C65.9933 59.3286 66.9883 58.2839 67.6014 56.9913C68.3216 55.4743 68.5126 53.5488 68.124 51.707C68.0972 51.5731 68.0737 51.4459 68.0737 51.4224C68.0737 51.399 68.1374 51.3621 68.2178 51.3387C68.4992 51.255 69.206 50.9536 69.7153 50.6991C73.5679 48.777 76.7437 45.3312 78.6533 41.0047C78.938 40.3651 79.2831 39.4743 79.4606 38.9352C79.5209 38.7577 79.5779 38.6104 79.588 38.6104C79.598 38.6104 79.598 38.9084 79.5846 39.27ZM45.9397 40.6196C47.4439 43.6233 48.5159 47.1495 49.0285 50.7661C49.1591 51.7037 49.3099 52.0988 49.665 52.4605C50.0771 52.8791 50.5829 52.8958 50.938 52.504C51.2194 52.1926 51.407 51.6367 51.608 50.5149C51.7588 49.6878 51.8593 49.2022 52.0101 48.6363C52.6399 46.2554 53.732 44.1759 55.2663 42.4279C55.6449 41.9959 56.402 41.2458 56.7839 40.9209C56.9548 40.7736 56.9045 40.8406 56.536 41.2391C54.5595 43.3789 53.3635 45.6493 52.8476 48.2378C52.459 50.1901 52.4724 51.8946 52.8978 54.1315C53.0352 54.8682 53.0754 55.2935 53.0754 56.0235C53.0787 56.941 52.9816 57.6007 52.7471 58.3173C52.3283 59.5999 51.464 60.638 50.3518 61.1972C49.9062 61.4216 49.6717 61.4885 49.2563 61.5053C48.5461 61.5388 48.0838 61.3646 47.6047 60.8824C46.794 60.0721 46.593 58.8263 46.8811 56.432C47.0955 54.6673 47.1256 51.1512 46.9481 48.5894C46.7236 45.2977 46.1977 42.2336 45.4606 39.9398C45.3836 39.702 45.3132 39.4844 45.3065 39.4542C45.263 39.3136 45.5678 39.8728 45.9397 40.6196ZM34.2982 40.2244C33.9933 41.2391 33.7186 42.3843 33.4807 43.6669C33.3501 44.3634 33.1223 45.9205 33.062 46.5367L33.0218 46.9452L32.7739 46.8079C32.6399 46.7343 32.5293 46.684 32.5293 46.6941C32.5293 46.7075 32.6298 46.8515 32.7504 47.0189L32.9749 47.3236L32.9179 48.0135C32.794 49.5974 32.7806 49.9925 32.7806 52.273C32.7806 54.6673 32.8107 55.4542 32.9313 56.4253C33.1625 58.2604 33.0854 59.4392 32.6801 60.2428C32.3853 60.8322 31.9129 61.2508 31.3333 61.435C31.0754 61.5153 30.4757 61.5354 30.1809 61.4685C29.4171 61.2977 28.4925 60.6581 27.8995 59.8979C27.3568 59.1914 27.0151 58.3776 26.8308 57.3429C26.7605 56.9645 26.7538 56.8037 26.7538 56.0235C26.7538 55.0859 26.7806 54.7811 26.9514 53.9473C27.0586 53.4216 27.1558 52.705 27.206 52.0921C27.263 51.3722 27.2261 49.8954 27.1357 49.2257C26.7136 46.098 25.3869 43.4124 23.0821 41.0415L22.6633 40.6062L22.9816 40.8741C23.7152 41.4835 24.5796 42.3977 25.1826 43.188C25.8091 44.0118 26.2278 44.6882 26.7035 45.656C27.4305 47.1294 27.8359 48.4253 28.2245 50.5384C28.4355 51.7004 28.6097 52.206 28.9079 52.5174C29.1524 52.7753 29.4305 52.8423 29.7889 52.7217C30.1106 52.6145 30.4422 52.2027 30.6231 51.6803C30.66 51.5731 30.7337 51.1847 30.7873 50.8163C31.2998 47.3571 32.2211 44.2361 33.5846 41.3563C33.742 41.0281 33.8962 40.71 33.9297 40.6464C33.9665 40.5861 34.0938 40.345 34.2178 40.1072C34.3417 39.8728 34.4456 39.6819 34.4523 39.6819C34.4556 39.6819 34.3886 39.9264 34.2982 40.2244ZM34.7069 40.6196C34.4255 42.4948 34.2647 44.3935 34.2178 46.4228C34.1943 47.3772 34.1943 47.3839 34.124 47.3638C34.0838 47.3538 33.9062 47.2968 33.7286 47.2399C33.4271 47.1428 33.4003 47.1294 33.4003 47.049C33.4003 46.9151 33.5544 45.6526 33.6516 45.0063C33.8292 43.8309 34.0871 42.5283 34.3551 41.4634C34.5059 40.8707 34.7772 39.9431 34.794 39.9599C34.8007 39.9632 34.7605 40.2613 34.7069 40.6196ZM35.5611 49.296C36.6566 49.8251 37.9464 50.1499 39.2831 50.2303L39.8828 50.2671L40.2211 50.4345C40.6633 50.6556 41.0553 50.9536 41.4606 51.3789C42.1474 52.1022 42.5159 52.9226 42.6164 53.9607C42.6667 54.4664 42.6164 55.4844 42.5159 55.9967C42.2479 57.3328 41.5343 58.4078 40.4255 59.1478C39.856 59.5262 39.3199 59.7573 38.1072 60.1424C37.8124 60.2361 37.3668 60.3969 37.1189 60.4973C36.871 60.6011 36.6365 60.6916 36.5963 60.7016C36.5293 60.715 36.5126 60.6681 36.3216 59.985C35.5745 57.3127 35.0586 54.4496 34.794 51.486C34.727 50.7694 34.6399 49.3529 34.6399 49.0348V48.7937L34.8677 48.931C34.9916 49.008 35.3032 49.1721 35.5611 49.296ZM2.92463 53.7698C6.63652 58.3106 11.062 60.936 15.8291 61.4316C16.4221 61.4952 17.5712 61.512 18.1441 61.4718L18.5126 61.445L18.5561 61.8067C18.7739 63.702 19.665 65.4233 20.9983 66.5417C21.7889 67.2014 22.5829 67.63 23.7018 67.9984L24.1374 68.1424H22.9816C21.809 68.1457 21.1591 68.1189 20.2513 68.0285C16.0168 67.6032 12.3417 66.1064 9.28979 63.5647C6.67337 61.3847 4.53267 58.3776 3.11558 54.8849C2.89783 54.3492 2.53602 53.3446 2.55947 53.3446C2.56952 53.3446 2.73032 53.5354 2.92463 53.7698ZM77.2898 53.8033C76.4724 56.1307 75.2998 58.3374 73.9029 60.1926C71.5444 63.3169 68.5427 65.5572 64.9581 66.8665C63.2965 67.4726 61.4506 67.8711 59.397 68.0654C58.7136 68.129 55.8124 68.1759 55.8124 68.1223C55.8124 68.1022 55.9297 68.0553 56.0737 68.0151C56.4221 67.9113 57.0352 67.6669 57.4003 67.486C59.0653 66.6522 60.2613 65.2793 60.8878 63.4911C61.062 62.9854 61.196 62.4128 61.263 61.877L61.3199 61.4082L61.4204 61.4283C61.6717 61.4752 62.7739 61.5187 63.1993 61.4986C64.1709 61.4551 65.0955 61.3379 65.9632 61.1436C70.057 60.2361 73.8426 57.7213 77.0754 53.7698C77.2697 53.5354 77.4305 53.3446 77.4405 53.3446C77.4472 53.3446 77.3802 53.5522 77.2898 53.8033ZM68.9916 67.2818C68.8275 67.5597 68.0938 68.3902 67.5343 68.9327C65.6885 70.7175 63.407 72.067 60.7035 72.9678C58.8543 73.5873 57.1122 73.9289 54.8409 74.1265C54.1139 74.1868 51.7521 74.2236 51.005 74.1834L50.5025 74.1566L50.9883 73.9959C51.8995 73.6978 52.6566 73.2625 53.2429 72.6999C53.6516 72.3115 53.9431 71.9264 54.1809 71.4643C54.5729 70.7108 54.7404 70.0411 54.7638 69.1068C54.7739 68.782 54.7906 68.5141 54.7973 68.5141C54.8074 68.5141 54.8576 68.5442 54.9112 68.5811C55.2563 68.8289 56.2345 69.2006 57.0653 69.4015C60.4121 70.2119 64.1977 69.6962 67.722 67.9415C68.0536 67.7774 68.4757 67.553 68.66 67.4459C69.0486 67.2181 69.0218 67.2315 68.9916 67.2818ZM11.4171 67.4961C13.397 68.6078 15.6884 69.3814 17.799 69.6526C20.2814 69.9708 22.8878 69.6526 24.6432 68.8155L25.0486 68.6246L25.0687 69.1972C25.1457 71.5379 26.469 73.2156 28.8576 74.0026L29.3568 74.1667L28.7571 74.1901C27.9397 74.2236 25.9163 74.1868 25.1591 74.1265C22.9447 73.9389 21.139 73.584 19.2965 72.9678C16.2546 71.9532 13.6817 70.3291 11.7755 68.2227C11.4573 67.8711 10.9715 67.2751 11.005 67.2751C11.0151 67.2751 11.1993 67.3755 11.4171 67.4961Z" fill="black"/>
<path d="M56.8408 26.7895C56.6733 26.9201 56.7001 27.1813 56.8911 27.2785C57.0921 27.3823 57.3199 27.2349 57.3199 27.0005C57.3199 26.7661 57.0318 26.6389 56.8408 26.7895Z" fill="white"/>
<path d="M56.8644 27.774C56.6667 27.861 56.6366 28.1289 56.8074 28.2629C57.0051 28.4169 57.2865 28.2897 57.2865 28.0486C57.2865 27.8242 57.0687 27.6835 56.8644 27.774Z" fill="white"/>
<path d="M56.6901 28.9159C56.5394 29.0432 56.5394 29.224 56.6868 29.3479C56.8476 29.4852 57.0419 29.4484 57.1357 29.2675C57.2362 29.0733 57.1357 28.8791 56.9113 28.8456C56.8208 28.8288 56.7772 28.8422 56.6901 28.9159Z" fill="white"/>
<path d="M54.2681 29.1302C54.201 29.1972 54.1709 29.2608 54.1709 29.3345C54.1709 29.4082 54.201 29.4718 54.2681 29.5388C54.3351 29.6057 54.3987 29.6359 54.4724 29.6359C54.5461 29.6359 54.6098 29.6057 54.6768 29.5388C54.7438 29.4718 54.7739 29.4082 54.7739 29.3345C54.7739 29.2608 54.7438 29.1972 54.6768 29.1302C54.6098 29.0632 54.5461 29.0331 54.4724 29.0331C54.3987 29.0331 54.3351 29.0632 54.2681 29.1302Z" fill="white"/>
<path d="M56.3652 29.8771C56.3149 29.9239 56.2714 30.0043 56.2613 30.0746C56.2446 30.1751 56.258 30.2153 56.3384 30.3057C56.4155 30.3927 56.459 30.4128 56.5662 30.4128C56.6734 30.4128 56.717 30.3927 56.794 30.3057C56.8744 30.2153 56.8878 30.1751 56.8711 30.0746C56.8476 29.9206 56.717 29.8034 56.5662 29.8034C56.4959 29.8034 56.4188 29.8335 56.3652 29.8771Z" fill="white"/>
<path d="M54.7839 30.021C54.6599 30.0746 54.6063 30.1617 54.6063 30.3124C54.6097 30.5769 54.8978 30.6975 55.1055 30.52C55.283 30.3726 55.2395 30.1081 55.0251 30.0177C54.8911 29.9641 54.9179 29.9608 54.7839 30.021Z" fill="white"/>
<path d="M55.6683 30.5099C55.6382 30.5266 55.5879 30.5902 55.5578 30.6438C55.4506 30.8514 55.6013 31.0758 55.8459 31.0758C55.9464 31.0758 55.9933 31.0557 56.0603 30.972C56.1775 30.8347 56.1742 30.6941 56.0502 30.5702C55.9464 30.4663 55.7856 30.4429 55.6683 30.5099Z" fill="white"/>
<path d="M54.191 26.8263C54.0737 26.9636 54.0771 27.1043 54.201 27.2282C54.4054 27.4291 54.7236 27.3052 54.7236 27.0239C54.7236 26.8397 54.5997 26.7225 54.4054 26.7225C54.3049 26.7225 54.2613 26.7426 54.191 26.8263Z" fill="white"/>
<path d="M38.2412 47.7489C38.2043 47.7657 38.1306 47.826 38.0736 47.8862C37.9865 47.9767 37.9731 48.0135 37.9731 48.1876C37.9731 48.3718 37.9832 48.3952 38.0971 48.5091C38.3919 48.8071 38.8944 48.6062 38.8944 48.1943C38.8944 48.047 38.814 47.8862 38.7035 47.8059C38.6063 47.7356 38.345 47.7021 38.2412 47.7489Z" fill="white"/>
</g>
<defs>
<clipPath id="clip0_2005_30">
<rect width="80" height="80" fill="white"/>
</clipPath>
</defs>
</svg>
